<svg width="541" height="498" viewBox="0 0 541 498" fill="none" xmlns="http://www.w3.org/2000/svg">
<mask id="path-1-outside-1_2342_20988" maskUnits="userSpaceOnUse" x="0" y="0" width="541" height="498" fill="black">
<rect fill="white" width="541" height="498"/>
<path d="M38.8967 123.292L3 4.8879H28.519L52.1666 85.9188L73.2623 11.8528H97.2502L118.346 85.9188L141.993 4.8879H167.342L131.446 123.292H107.968L83.2998 40.9017H87.2127L62.5443 123.292H38.8967ZM179.984 123.292V4.8879H204.312V51.0942H252.968V4.8879H277.296V123.292H252.968V73.348H204.312V123.292H179.984ZM351.512 126.18C340.171 126.18 330.19 123.575 321.57 118.365C312.95 113.156 306.202 105.908 301.325 96.621C296.562 87.3345 294.18 76.519 294.18 64.1747C294.18 51.7171 296.562 40.845 301.325 31.5585C306.202 22.2719 312.95 15.0238 321.57 9.81431C330.19 4.60477 340.171 2 351.512 2C362.968 2 373.005 4.60477 381.625 9.81431C390.245 14.9106 396.936 22.102 401.7 31.3886C406.577 40.6752 409.015 51.6039 409.015 64.1747C409.015 76.6323 406.577 87.5044 401.7 96.7909C396.823 106.077 390.074 113.326 381.455 118.535C372.835 123.631 362.854 126.18 351.512 126.18ZM351.512 102.906C358.318 102.906 364.159 101.321 369.035 98.1499C373.912 94.9789 377.712 90.5055 380.434 84.7297C383.156 78.8407 384.517 71.989 384.517 64.1747C384.517 56.2471 383.156 49.3955 380.434 43.6197C377.712 37.7306 373.912 33.2006 369.035 30.0296C364.159 26.8586 358.261 25.273 351.342 25.273C344.764 25.273 338.98 26.8586 333.989 30.0296C328.999 33.0873 325.143 37.5041 322.421 43.2799C319.812 49.0557 318.508 56.0206 318.508 64.1747C318.508 72.2155 319.812 79.1238 322.421 84.8996C325.143 90.6754 328.999 95.1488 333.989 98.3198C338.98 101.378 344.821 102.906 351.512 102.906ZM12.0167 308.457V190.053H36.3448V308.457H12.0167ZM97.8549 310.835C84.9253 310.835 74.3207 307.494 66.0412 300.812C57.8751 294.13 52.8848 285.24 51.0701 274.142L74.8878 268.196C76.1354 275.218 78.8574 280.484 83.0539 283.994C87.2504 287.505 92.4676 289.261 98.7056 289.261C101.881 289.261 104.773 288.751 107.382 287.732C109.991 286.599 112.032 285.014 113.507 282.975C114.981 280.937 115.718 278.502 115.718 275.671C115.718 273.066 114.924 270.801 113.336 268.876C111.862 266.837 109.48 264.968 106.191 263.27C102.902 261.571 98.7055 259.759 93.6017 257.834C85.8893 254.776 79.4812 251.548 74.3774 248.151C69.2736 244.64 65.4741 240.619 62.979 236.089C60.5972 231.559 59.4063 226.293 59.4063 220.291C59.4063 213.836 60.9941 208.116 64.1698 203.133C67.3455 198.15 71.7688 194.243 77.4397 191.412C83.224 188.581 89.9157 187.165 97.5147 187.165C105.681 187.165 112.883 189.034 119.121 192.771C125.359 196.508 130.406 202.114 134.262 209.589L114.868 221.31C112.599 217.233 109.934 214.119 106.872 211.967C103.809 209.815 100.407 208.739 96.664 208.739C94.2823 208.739 92.1273 209.192 90.1992 210.098C88.2711 211.004 86.6833 212.307 85.4357 214.005C84.3015 215.704 83.7344 217.63 83.7344 219.781C83.7344 222.046 84.4149 224.141 85.7759 226.067C87.1369 227.879 89.462 229.691 92.7511 231.503C96.1536 233.315 100.634 235.297 106.191 237.448C113.677 240.166 119.858 243.224 124.735 246.622C129.725 249.906 133.468 253.757 135.963 258.173C138.572 262.59 139.876 267.913 139.876 274.142C139.876 281.276 138.118 287.619 134.602 293.168C131.086 298.717 126.153 303.077 119.801 306.248C113.563 309.306 106.248 310.835 97.8549 310.835ZM52.1666 496C39.237 496 28.6324 492.659 20.3529 485.977C12.1868 479.295 7.19646 470.405 5.38177 459.307L29.1995 453.361C30.4471 460.383 33.1691 465.649 37.3656 469.16C41.562 472.67 46.7793 474.426 53.0172 474.426C56.1929 474.426 59.0851 473.916 61.6937 472.897C64.3023 471.764 66.3438 470.179 67.8183 468.14C69.2927 466.102 70.0299 463.667 70.0299 460.836C70.0299 458.231 69.236 455.966 67.6481 454.041C66.1737 452.002 63.7919 450.133 60.5028 448.435C57.2137 446.736 53.0172 444.924 47.9134 442.999C40.201 439.941 33.7929 436.713 28.6891 433.316C23.5853 429.805 19.7858 425.784 17.2906 421.254C14.9089 416.724 13.718 411.458 13.718 405.456C13.718 399.001 15.3058 393.282 18.4815 388.298C21.6572 383.315 26.0805 379.408 31.7514 376.577C37.5357 373.746 44.2274 372.33 51.8264 372.33C59.9924 372.33 67.1945 374.199 73.4324 377.936C79.6704 381.673 84.7175 387.279 88.5737 394.754L69.1793 406.475C66.9109 402.398 64.2456 399.284 61.1833 397.132C58.121 394.98 54.7185 393.904 50.9757 393.904C48.5939 393.904 46.439 394.357 44.5109 395.263C42.5828 396.169 40.995 397.472 39.7474 399.171C38.6132 400.869 38.0461 402.795 38.0461 404.946C38.0461 407.211 38.7266 409.306 40.0876 411.232C41.4486 413.044 43.7737 414.856 47.0628 416.668C50.4653 418.48 54.9453 420.462 60.5028 422.613C67.9884 425.331 74.1697 428.389 79.0466 431.787C84.037 435.071 87.7798 438.922 90.275 443.338C92.8836 447.755 94.1879 453.078 94.1879 459.307C94.1879 466.442 92.4299 472.784 88.914 478.333C85.398 483.882 80.4643 488.242 74.1129 491.413C67.875 494.471 60.5595 496 52.1666 496ZM110.537 493.622V375.218H134.865V421.424H183.522V375.218H207.85V493.622H183.522V443.678H134.865V493.622H110.537ZM229.327 493.622V375.218H253.655V493.622H229.327ZM275.015 493.622V375.218H354.805V396.962H299.343V421.934H347.489V443.678H299.343V493.622H275.015ZM395.922 493.622V396.962H360.196V375.218H456.147V396.962H420.591V493.622H395.922ZM491.194 457.268V451.832C491.194 446.849 491.818 442.659 493.066 439.261C494.427 435.751 496.128 432.806 498.17 430.428C500.325 427.936 502.536 425.784 504.805 423.972C507.186 422.047 509.398 420.235 511.439 418.536C513.594 416.838 515.296 414.969 516.543 412.931C517.904 410.779 518.585 408.287 518.585 405.456C518.585 401.266 517.11 398.151 514.161 396.113C511.326 393.961 507.3 392.885 502.082 392.885C495.845 392.885 491.138 394.471 487.962 397.642C484.9 400.813 483.425 405.513 483.539 411.741H462.783C462.897 403.587 464.598 396.679 467.887 391.016C471.29 385.241 475.94 380.881 481.837 377.936C487.849 374.992 494.767 373.519 502.593 373.519C509.058 373.519 515.012 374.595 520.456 376.747C526.014 378.899 530.494 382.353 533.896 387.109C537.299 391.866 539 398.095 539 405.796C539 410.779 538.319 414.969 536.958 418.367C535.597 421.764 533.839 424.652 531.685 427.03C529.53 429.295 527.261 431.334 524.879 433.146C522.611 434.958 520.399 436.77 518.245 438.582C516.09 440.394 514.332 442.489 512.971 444.867C511.61 447.246 510.929 450.133 510.929 453.531V457.268H491.194ZM489.153 493.622V470.349H513.651V493.622H489.153Z"/>
</mask>
<path d="M38.8967 123.292L3 4.8879H28.519L52.1666 85.9188L73.2623 11.8528H97.2502L118.346 85.9188L141.993 4.8879H167.342L131.446 123.292H107.968L83.2998 40.9017H87.2127L62.5443 123.292H38.8967ZM179.984 123.292V4.8879H204.312V51.0942H252.968V4.8879H277.296V123.292H252.968V73.348H204.312V123.292H179.984ZM351.512 126.18C340.171 126.18 330.19 123.575 321.57 118.365C312.95 113.156 306.202 105.908 301.325 96.621C296.562 87.3345 294.18 76.519 294.18 64.1747C294.18 51.7171 296.562 40.845 301.325 31.5585C306.202 22.2719 312.95 15.0238 321.57 9.81431C330.19 4.60477 340.171 2 351.512 2C362.968 2 373.005 4.60477 381.625 9.81431C390.245 14.9106 396.936 22.102 401.7 31.3886C406.577 40.6752 409.015 51.6039 409.015 64.1747C409.015 76.6323 406.577 87.5044 401.7 96.7909C396.823 106.077 390.074 113.326 381.455 118.535C372.835 123.631 362.854 126.18 351.512 126.18ZM351.512 102.906C358.318 102.906 364.159 101.321 369.035 98.1499C373.912 94.9789 377.712 90.5055 380.434 84.7297C383.156 78.8407 384.517 71.989 384.517 64.1747C384.517 56.2471 383.156 49.3955 380.434 43.6197C377.712 37.7306 373.912 33.2006 369.035 30.0296C364.159 26.8586 358.261 25.273 351.342 25.273C344.764 25.273 338.98 26.8586 333.989 30.0296C328.999 33.0873 325.143 37.5041 322.421 43.2799C319.812 49.0557 318.508 56.0206 318.508 64.1747C318.508 72.2155 319.812 79.1238 322.421 84.8996C325.143 90.6754 328.999 95.1488 333.989 98.3198C338.98 101.378 344.821 102.906 351.512 102.906ZM12.0167 308.457V190.053H36.3448V308.457H12.0167ZM97.8549 310.835C84.9253 310.835 74.3207 307.494 66.0412 300.812C57.8751 294.13 52.8848 285.24 51.0701 274.142L74.8878 268.196C76.1354 275.218 78.8574 280.484 83.0539 283.994C87.2504 287.505 92.4676 289.261 98.7056 289.261C101.881 289.261 104.773 288.751 107.382 287.732C109.991 286.599 112.032 285.014 113.507 282.975C114.981 280.937 115.718 278.502 115.718 275.671C115.718 273.066 114.924 270.801 113.336 268.876C111.862 266.837 109.48 264.968 106.191 263.27C102.902 261.571 98.7055 259.759 93.6017 257.834C85.8893 254.776 79.4812 251.548 74.3774 248.151C69.2736 244.64 65.4741 240.619 62.979 236.089C60.5972 231.559 59.4063 226.293 59.4063 220.291C59.4063 213.836 60.9941 208.116 64.1698 203.133C67.3455 198.15 71.7688 194.243 77.4397 191.412C83.224 188.581 89.9157 187.165 97.5147 187.165C105.681 187.165 112.883 189.034 119.121 192.771C125.359 196.508 130.406 202.114 134.262 209.589L114.868 221.31C112.599 217.233 109.934 214.119 106.872 211.967C103.809 209.815 100.407 208.739 96.664 208.739C94.2823 208.739 92.1273 209.192 90.1992 210.098C88.2711 211.004 86.6833 212.307 85.4357 214.005C84.3015 215.704 83.7344 217.63 83.7344 219.781C83.7344 222.046 84.4149 224.141 85.7759 226.067C87.1369 227.879 89.462 229.691 92.7511 231.503C96.1536 233.315 100.634 235.297 106.191 237.448C113.677 240.166 119.858 243.224 124.735 246.622C129.725 249.906 133.468 253.757 135.963 258.173C138.572 262.59 139.876 267.913 139.876 274.142C139.876 281.276 138.118 287.619 134.602 293.168C131.086 298.717 126.153 303.077 119.801 306.248C113.563 309.306 106.248 310.835 97.8549 310.835ZM52.1666 496C39.237 496 28.6324 492.659 20.3529 485.977C12.1868 479.295 7.19646 470.405 5.38177 459.307L29.1995 453.361C30.4471 460.383 33.1691 465.649 37.3656 469.16C41.562 472.67 46.7793 474.426 53.0172 474.426C56.1929 474.426 59.0851 473.916 61.6937 472.897C64.3023 471.764 66.3438 470.179 67.8183 468.14C69.2927 466.102 70.0299 463.667 70.0299 460.836C70.0299 458.231 69.236 455.966 67.6481 454.041C66.1737 452.002 63.7919 450.133 60.5028 448.435C57.2137 446.736 53.0172 444.924 47.9134 442.999C40.201 439.941 33.7929 436.713 28.6891 433.316C23.5853 429.805 19.7858 425.784 17.2906 421.254C14.9089 416.724 13.718 411.458 13.718 405.456C13.718 399.001 15.3058 393.282 18.4815 388.298C21.6572 383.315 26.0805 379.408 31.7514 376.577C37.5357 373.746 44.2274 372.33 51.8264 372.33C59.9924 372.33 67.1945 374.199 73.4324 377.936C79.6704 381.673 84.7175 387.279 88.5737 394.754L69.1793 406.475C66.9109 402.398 64.2456 399.284 61.1833 397.132C58.121 394.98 54.7185 393.904 50.9757 393.904C48.5939 393.904 46.439 394.357 44.5109 395.263C42.5828 396.169 40.995 397.472 39.7474 399.171C38.6132 400.869 38.0461 402.795 38.0461 404.946C38.0461 407.211 38.7266 409.306 40.0876 411.232C41.4486 413.044 43.7737 414.856 47.0628 416.668C50.4653 418.48 54.9453 420.462 60.5028 422.613C67.9884 425.331 74.1697 428.389 79.0466 431.787C84.037 435.071 87.7798 438.922 90.275 443.338C92.8836 447.755 94.1879 453.078 94.1879 459.307C94.1879 466.442 92.4299 472.784 88.914 478.333C85.398 483.882 80.4643 488.242 74.1129 491.413C67.875 494.471 60.5595 496 52.1666 496ZM110.537 493.622V375.218H134.865V421.424H183.522V375.218H207.85V493.622H183.522V443.678H134.865V493.622H110.537ZM229.327 493.622V375.218H253.655V493.622H229.327ZM275.015 493.622V375.218H354.805V396.962H299.343V421.934H347.489V443.678H299.343V493.622H275.015ZM395.922 493.622V396.962H360.196V375.218H456.147V396.962H420.591V493.622H395.922ZM491.194 457.268V451.832C491.194 446.849 491.818 442.659 493.066 439.261C494.427 435.751 496.128 432.806 498.17 430.428C500.325 427.936 502.536 425.784 504.805 423.972C507.186 422.047 509.398 420.235 511.439 418.536C513.594 416.838 515.296 414.969 516.543 412.931C517.904 410.779 518.585 408.287 518.585 405.456C518.585 401.266 517.11 398.151 514.161 396.113C511.326 393.961 507.3 392.885 502.082 392.885C495.845 392.885 491.138 394.471 487.962 397.642C484.9 400.813 483.425 405.513 483.539 411.741H462.783C462.897 403.587 464.598 396.679 467.887 391.016C471.29 385.241 475.94 380.881 481.837 377.936C487.849 374.992 494.767 373.519 502.593 373.519C509.058 373.519 515.012 374.595 520.456 376.747C526.014 378.899 530.494 382.353 533.896 387.109C537.299 391.866 539 398.095 539 405.796C539 410.779 538.319 414.969 536.958 418.367C535.597 421.764 533.839 424.652 531.685 427.03C529.53 429.295 527.261 431.334 524.879 433.146C522.611 434.958 520.399 436.77 518.245 438.582C516.09 440.394 514.332 442.489 512.971 444.867C511.61 447.246 510.929 450.133 510.929 453.531V457.268H491.194ZM489.153 493.622V470.349H513.651V493.622H489.153Z" stroke="white" stroke-opacity="0.5" stroke-width="4" mask="url(#path-1-outside-1_2342_20988)"/>
</svg>
