<svg width="44" height="44" viewBox="0 0 44 44" fill="none" xmlns="http://www.w3.org/2000/svg">
<path d="M5.903 43.2628C4.46795 43.2628 3.24797 42.7605 2.24306 41.756C1.23857 40.7511 0.736328 39.5311 0.736328 38.0961C0.736328 36.8807 1.10467 35.815 1.84135 34.8992C2.57846 33.9834 3.50179 33.3783 4.61133 33.0838V10.9162C3.50179 10.6217 2.57846 10.0166 1.84135 9.10077C1.10467 8.18498 0.736328 7.11936 0.736328 5.9039C0.736328 4.46886 1.23857 3.24887 2.24306 2.24396C3.24797 1.23947 4.46795 0.73723 5.903 0.73723C7.11845 0.73723 8.18408 1.10557 9.09987 1.84225C10.0157 2.57936 10.6208 3.50269 10.9153 4.61223H33.0829C33.3675 3.50269 33.9713 2.57936 34.8945 1.84225C35.8176 1.10557 36.8845 0.73723 38.0952 0.73723C39.5302 0.73723 40.7502 1.23947 41.7551 2.24396C42.7596 3.24887 43.2619 4.46886 43.2619 5.9039C43.2619 7.11462 42.8935 8.18154 42.1569 9.10465C41.4197 10.0278 40.4964 10.6316 39.3869 10.9162V33.0838C40.4964 33.3783 41.4197 33.9834 42.1569 34.8992C42.8935 35.815 43.2619 36.8807 43.2619 38.0961C43.2619 39.5311 42.7596 40.7511 41.7551 41.756C40.7502 42.7605 39.5302 43.2628 38.0952 43.2628C36.8797 43.2628 35.8141 42.8944 34.8983 42.1578C33.9825 41.4206 33.3774 40.4973 33.0829 39.3878H10.9153C10.6208 40.4973 10.0157 41.4206 9.09987 42.1578C8.18408 42.8944 7.11845 43.2628 5.903 43.2628ZM5.903 8.48723C6.63494 8.48723 7.24848 8.23966 7.74362 7.74452C8.23876 7.24938 8.48633 6.63584 8.48633 5.9039C8.48633 5.17195 8.23876 4.55841 7.74362 4.06327C7.24848 3.56813 6.63494 3.32056 5.903 3.32056C5.17105 3.32056 4.55751 3.56813 4.06237 4.06327C3.56723 4.55841 3.31966 5.17195 3.31966 5.9039C3.31966 6.63584 3.56723 7.24938 4.06237 7.74452C4.55751 8.23966 5.17105 8.48723 5.903 8.48723ZM38.0952 8.48723C38.8272 8.48723 39.4407 8.23966 39.9358 7.74452C40.431 7.24938 40.6785 6.63584 40.6785 5.9039C40.6785 5.17195 40.431 4.55841 39.9358 4.06327C39.4407 3.56813 38.8272 3.32056 38.0952 3.32056C37.3633 3.32056 36.7497 3.56813 36.2546 4.06327C35.7594 4.55841 35.5119 5.17195 35.5119 5.9039C35.5119 6.63584 35.7594 7.24938 36.2546 7.74452C36.7497 8.23966 37.3633 8.48723 38.0952 8.48723ZM10.9153 36.8044H33.0829C33.3378 35.8839 33.7914 35.0973 34.4437 34.4446C35.0964 33.7923 35.883 33.3387 36.8035 33.0838V10.9162C35.883 10.6945 35.0882 10.2491 34.4191 9.57998C33.75 8.9109 33.3046 8.11609 33.0829 7.19556H10.9153C10.6604 8.11609 10.2068 8.90272 9.55454 9.55544C8.90181 10.2077 8.11519 10.6613 7.19466 10.9162V33.0838C8.11519 33.3387 8.90181 33.7923 9.55454 34.4446C10.2068 35.0973 10.6604 35.8839 10.9153 36.8044ZM38.0952 40.6794C38.8272 40.6794 39.4407 40.4319 39.9358 39.9367C40.431 39.4416 40.6785 38.8281 40.6785 38.0961C40.6785 37.3642 40.431 36.7506 39.9358 36.2555C39.4407 35.7603 38.8272 35.5128 38.0952 35.5128C37.3633 35.5128 36.7497 35.7603 36.2546 36.2555C35.7594 36.7506 35.5119 37.3642 35.5119 38.0961C35.5119 38.8281 35.7594 39.4416 36.2546 39.9367C36.7497 40.4319 37.3633 40.6794 38.0952 40.6794ZM5.903 40.6794C6.63494 40.6794 7.24848 40.4319 7.74362 39.9367C8.23876 39.4416 8.48633 38.8281 8.48633 38.0961C8.48633 37.3642 8.23876 36.7506 7.74362 36.2555C7.24848 35.7603 6.63494 35.5128 5.903 35.5128C5.17105 35.5128 4.55751 35.7603 4.06237 36.2555C3.56723 36.7506 3.31966 37.3642 3.31966 38.0961C3.31966 38.8281 3.56723 39.4416 4.06237 39.9367C4.55751 40.4319 5.17105 40.6794 5.903 40.6794Z" fill="white"/>
</svg>
