<svg width="53" height="52" viewBox="0 0 53 52" fill="none" xmlns="http://www.w3.org/2000/svg">
<mask id="mask0_2450_2552" style="mask-type:alpha" maskUnits="userSpaceOnUse" x="0" y="0" width="53" height="52">
<rect x="0.666748" width="52" height="52" fill="#D9D9D9"/>
</mask>
<g mask="url(#mask0_2450_2552)">
<path d="M25.4952 44V16.4375H27.7809V44H25.4952ZM16.8798 37.6393V22.7549H19.1655V37.6393H16.8798ZM34.1107 37.6393V22.7549H36.3964V37.6393H34.1107ZM8.26437 31.3224V29.0724H10.5501V31.3224H8.26437ZM42.7261 31.3224V29.0724H45.0118V31.3224H42.7261ZM6.06665 20.8076V18.5576H7.56551C9.26189 18.5576 10.8472 18.1494 12.3215 17.333C13.7954 16.5166 14.9661 15.4048 15.8335 13.9974C16.9825 12.1194 18.5133 10.6503 20.4261 9.59019C22.3392 8.53006 24.4103 8 26.6392 8C28.8686 8 30.9392 8.53006 32.8512 9.59019C34.7632 10.6503 36.2937 12.1194 37.4427 13.9974C38.2808 15.4048 39.4316 16.5166 40.8952 17.333C42.3588 18.1494 43.964 18.5576 45.7107 18.5576H47.2095V20.8076H45.7238C43.6167 20.8076 41.6526 20.3056 39.8312 19.3018C38.0103 18.2979 36.5634 16.9134 35.4907 15.1483C34.5558 13.5991 33.3036 12.3954 31.7341 11.537C30.1646 10.679 28.4659 10.25 26.6381 10.25C24.8495 10.25 23.1701 10.679 21.5998 11.537C20.0299 12.3954 18.7775 13.5991 17.8427 15.1483C16.7406 16.9134 15.279 18.2979 13.4581 19.3018C11.6367 20.3056 9.67256 20.8076 7.56551 20.8076H6.06665Z" fill="white"/>
</g>
</svg>
