<svg width="52" height="52" viewBox="0 0 52 52" fill="none" xmlns="http://www.w3.org/2000/svg">
<mask id="mask0_2450_2465" style="mask-type:alpha" maskUnits="userSpaceOnUse" x="0" y="0" width="52" height="52">
<rect width="52" height="52" fill="#D9D9D9"/>
</mask>
<g mask="url(#mask0_2450_2465)">
<path d="M7 45V33.125H9.375V42.625H18.875V45H7ZM33.125 45V42.625H42.625V33.125H45V45H33.125ZM7 18.875V7H18.875V9.375H9.375V18.875H7ZM42.625 18.875V9.375H33.125V7H45V18.875H42.625ZM26 33.125C24.0406 33.125 22.3633 32.4273 20.968 31.032C19.5727 29.6367 18.875 27.9594 18.875 26C18.875 24.0406 19.5727 22.3633 20.968 20.968C22.3633 19.5727 24.0406 18.875 26 18.875C27.9594 18.875 29.6367 19.5727 31.032 20.968C32.4273 22.3633 33.125 24.0406 33.125 26C33.125 27.9594 32.4273 29.6367 31.032 31.032C29.6367 32.4273 27.9594 33.125 26 33.125ZM26 30.75C27.3062 30.75 28.4245 30.2849 29.3547 29.3547C30.2849 28.4245 30.75 27.3062 30.75 26C30.75 24.6938 30.2849 23.5755 29.3547 22.6453C28.4245 21.7151 27.3062 21.25 26 21.25C24.6938 21.25 23.5755 21.7151 22.6453 22.6453C21.7151 23.5755 21.25 24.6938 21.25 26C21.25 27.3062 21.7151 28.4245 22.6453 29.3547C23.5755 30.2849 24.6938 30.75 26 30.75Z" fill="white"/>
</g>
</svg>
