<svg width="38" height="48" viewBox="0 0 38 48" fill="none" xmlns="http://www.w3.org/2000/svg">
<path d="M0.916016 47.25V36.2211C5.00285 33.3398 7.78811 30.4915 9.27181 27.6761C10.7559 24.8611 11.8043 22.3441 12.417 20.125H5.73522V17.5417H12.5907C11.5906 16.6607 10.794 15.6158 10.2012 14.4068C9.60829 13.1978 9.31185 11.8747 9.31185 10.4375C9.31185 7.74653 10.2546 5.4592 12.14 3.57552C14.0254 1.69184 16.3148 0.75 19.0084 0.75C21.7015 0.75 23.988 1.69184 25.8678 3.57552C27.7472 5.4592 28.6869 7.74653 28.6869 10.4375C28.6869 11.8747 28.3904 13.1978 27.7975 14.4068C27.2047 15.6158 26.4081 16.6607 25.408 17.5417H32.3132V20.125H25.6811C26.2607 22.3109 27.2841 24.8198 28.7514 27.6515C30.2188 30.4833 32.9958 33.3398 37.0827 36.2211V47.25H0.916016ZM3.49935 44.6667H34.4994V37.8111C31.2004 35.1749 28.6849 32.4333 26.9528 29.5865C25.2207 26.7396 23.9042 23.5858 23.0035 20.125H15.0449C14.1442 23.5858 12.8194 26.7396 11.0705 29.5865C9.32197 32.4333 6.79827 35.1749 3.49935 37.8111V44.6667ZM19.0181 17.5417C21.0128 17.5417 22.6924 16.8549 24.0569 15.4815C25.4213 14.108 26.1035 12.4267 26.1035 10.4375C26.1035 8.44833 25.4183 6.76702 24.0478 5.39354C22.6774 4.02007 20.9999 3.33333 19.0155 3.33333C17.0306 3.33333 15.3478 4.02007 13.967 5.39354C12.5858 6.76702 11.8952 8.44833 11.8952 10.4375C11.8952 12.4267 12.5836 14.108 13.9606 15.4815C15.3379 16.8549 17.0237 17.5417 19.0181 17.5417Z" fill="#006F69"/>
</svg>
