<svg xmlns="http://www.w3.org/2000/svg" width="18" height="18" viewBox="0 0 18 18" fill="none">
    <path d="M8.75 17.7505C6.32872 17.7505 4.26506 16.8975 2.55904 15.1915C0.853013 13.4854 0 11.4218 0 9.00049C0 6.57921 0.853013 4.51555 2.55904 2.80953C4.26506 1.1035 6.32872 0.250488 8.75 0.250488C11.1713 0.250488 13.2349 1.1035 14.941 2.80953C16.647 4.51555 17.5 6.57921 17.5 9.00049C17.5 11.4218 16.647 13.4854 14.941 15.1915C13.2349 16.8975 11.1713 17.7505 8.75 17.7505ZM8.75 15.7313C10.6122 15.7313 12.1995 15.075 13.512 13.7625C14.8245 12.45 15.4808 10.8627 15.4808 9.00049C15.4808 7.13831 14.8245 5.55097 13.512 4.23847C12.1995 2.92597 10.6122 2.26972 8.75 2.26972C6.88782 2.26972 5.30048 2.92597 3.98798 4.23847C2.67548 5.55097 2.01923 7.13831 2.01923 9.00049C2.01923 10.8627 2.67548 12.45 3.98798 13.7625C5.30048 15.075 6.88782 15.7313 8.75 15.7313Z" fill="#006F69"/>
</svg>