<svg width="147" height="52" viewBox="0 0 147 52" fill="none" xmlns="http://www.w3.org/2000/svg">
<g clip-path="url(#clip0_2472_2717)">
<path fill-rule="evenodd" clip-rule="evenodd" d="M19.65 5.41675C9.23528 5.41675 0.799805 13.8667 0.799805 24.2992C0.799805 32.6547 6.19568 39.7121 13.6886 42.214C14.6312 42.3792 14.9846 41.8128 14.9846 41.3171C14.9846 40.8686 14.961 39.3816 14.961 37.8002C10.2249 38.6735 8.99965 36.6437 8.62264 35.5815C8.41058 35.0387 7.49163 33.3628 6.6905 32.9144C6.03074 32.5603 5.08823 31.687 6.66693 31.6634C8.15139 31.6398 9.21171 33.0324 9.56516 33.5989C11.2617 36.4548 13.9714 35.6523 15.0553 35.1567C15.2202 33.9293 15.715 33.1032 16.257 32.6311C12.0628 32.1591 7.68013 30.5305 7.68013 23.3079C7.68013 21.2544 8.41058 19.555 9.61228 18.2332C9.42378 17.7612 8.76402 15.8257 9.80078 13.2294C9.80078 13.2294 11.3795 12.7337 14.9846 15.1648C16.4926 14.74 18.0949 14.5276 19.6971 14.5276C21.2994 14.5276 22.9017 14.74 24.4097 15.1648C28.0148 12.7101 29.5935 13.2294 29.5935 13.2294C30.6303 15.8257 29.9705 17.7612 29.782 18.2332C30.9837 19.555 31.7142 21.2308 31.7142 23.3079C31.7142 30.5541 27.3079 32.1591 23.1138 32.6311C23.7971 33.2212 24.3861 34.3542 24.3861 36.1244C24.3861 38.6499 24.3626 40.6798 24.3626 41.3171C24.3626 41.8128 24.716 42.4028 25.6585 42.214C29.4006 40.9485 32.6524 38.5394 34.956 35.3257C37.2597 32.112 38.4992 28.2556 38.5002 24.2992C38.5002 13.8667 30.0648 5.41675 19.65 5.41675Z" fill="#161616"/>
<path d="M88.6764 33.4133H88.6324C88.6522 33.4133 88.6654 33.4354 88.6852 33.4376H88.6984L88.6764 33.4155V33.4133ZM88.6852 33.4376C88.4807 33.4398 87.966 33.5477 87.4228 33.5477C85.7075 33.5477 85.1137 32.7547 85.1137 31.7193V24.8218H88.6104C88.8083 24.8218 88.9623 24.6456 88.9623 24.4032V20.6582C88.9623 20.46 88.7863 20.2837 88.6104 20.2837H85.1137V15.6355C85.1137 15.4592 85.0037 15.3491 84.8058 15.3491H80.0555C79.8576 15.3491 79.7477 15.4592 79.7477 15.6355V20.4159C79.7477 20.4159 77.3505 21.0107 77.1966 21.0327C77.0207 21.0768 76.9107 21.231 76.9107 21.4072V24.4032C76.9107 24.6456 77.0866 24.8218 77.2846 24.8218H79.7257V32.0475C79.7257 37.4227 83.4643 37.9735 86.0154 37.9735C87.1809 37.9735 88.5884 37.599 88.8083 37.4888C88.9403 37.4448 89.0063 37.2906 89.0063 37.1363V33.8319C89.0093 33.7382 88.9785 33.6465 88.9195 33.5737C88.8605 33.5009 88.7774 33.4517 88.6852 33.4354V33.4376ZM140.797 28.5889C140.797 24.6015 139.192 24.0728 137.498 24.249C136.179 24.3372 135.123 24.998 135.123 24.998V32.7525C135.123 32.7525 136.201 33.5015 137.806 33.5455C140.071 33.6116 140.797 32.7965 140.797 28.5889ZM146.141 28.2364C146.141 35.7925 143.7 37.9514 139.434 37.9514C135.827 37.9514 133.892 36.123 133.892 36.123C133.892 36.123 133.804 37.1363 133.694 37.2685C133.628 37.4007 133.518 37.4448 133.386 37.4448H130.131C129.911 37.4448 129.713 37.2685 129.713 37.0703L129.757 12.5954C129.757 12.3971 129.933 12.2209 130.131 12.2209H134.815C135.013 12.2209 135.189 12.3971 135.189 12.5954V20.9005C135.189 20.9005 136.993 19.733 139.632 19.733L139.61 19.6889C142.249 19.6889 146.141 20.6803 146.141 28.2364ZM126.964 20.2837H122.346C122.104 20.2837 121.972 20.46 121.972 20.7023V32.6864C121.972 32.6864 120.763 33.5455 119.113 33.5455C117.464 33.5455 116.98 32.7965 116.98 31.1443V20.6803C116.98 20.482 116.804 20.3057 116.606 20.3057H111.9C111.702 20.3057 111.526 20.482 111.526 20.6803V31.9374C111.526 36.7839 114.231 37.9955 117.948 37.9955C121.005 37.9955 123.49 36.2992 123.49 36.2992C123.49 36.2992 123.6 37.1584 123.666 37.2906C123.71 37.4007 123.863 37.4888 124.017 37.4888H126.964C127.206 37.4888 127.338 37.3126 127.338 37.1143L127.382 20.6582C127.382 20.46 127.206 20.2837 126.964 20.2837ZM74.8435 20.2617H70.1592C69.9613 20.2617 69.7853 20.46 69.7853 20.7023V36.872C69.7853 37.3126 70.0712 37.4668 70.4451 37.4668H74.6675C75.1074 37.4668 75.2173 37.2685 75.2173 36.872V20.6362C75.2173 20.4379 75.0414 20.2617 74.8435 20.2617ZM72.5343 12.8157C70.8409 12.8157 69.4994 14.1595 69.4994 15.8558C69.4994 17.5521 70.8409 18.8959 72.5343 18.8959C74.1837 18.8959 75.5252 17.5521 75.5252 15.8558C75.5252 14.1595 74.1837 12.8157 72.5343 12.8157ZM108.799 12.265H104.159C103.961 12.265 103.785 12.4412 103.785 12.6395V21.6496H96.5055V12.6395C96.5055 12.4412 96.3296 12.265 96.1316 12.265H91.4474C91.2494 12.265 91.0735 12.4412 91.0735 12.6395V37.1143C91.0735 37.3126 91.2714 37.4888 91.4474 37.4888H96.1316C96.3296 37.4888 96.5055 37.3126 96.5055 37.1143V26.6503H103.785L103.741 37.1143C103.741 37.3126 103.917 37.4888 104.115 37.4888H108.799C108.997 37.4888 109.173 37.3126 109.173 37.1143V12.6395C109.173 12.4412 108.997 12.265 108.799 12.265ZM67.3002 23.1035V35.7485C67.3002 35.8366 67.2782 35.9908 67.1683 36.0349C67.1683 36.0349 64.4193 37.9955 59.889 37.9955C54.413 37.9955 47.9254 36.2772 47.9254 24.954C47.9254 13.6308 53.5993 11.2957 59.1412 11.3177C63.9355 11.3177 65.8708 12.3971 66.1786 12.5954C66.2666 12.7055 66.3106 12.7937 66.3106 12.9038L65.3869 16.8251C65.3869 17.0233 65.189 17.2657 64.9471 17.1996C64.1554 16.9573 62.9678 16.4726 60.1749 16.4726C56.942 16.4726 53.4673 17.3978 53.4673 24.6896C53.4673 31.9814 56.7661 32.8406 59.1412 32.8406C61.1645 32.8406 61.8902 32.5983 61.8902 32.5983V27.5314H58.6574C58.4155 27.5314 58.2396 27.3552 58.2396 27.1569V23.1035C58.2396 22.9052 58.4155 22.729 58.6574 22.729H66.8824C67.1243 22.729 67.3002 22.9052 67.3002 23.1035Z" fill="#161616"/>
</g>
<defs>
<clipPath id="clip0_2472_2717">
<rect width="146" height="52" fill="white" transform="translate(0.799805)"/>
</clipPath>
</defs>
</svg>
