<svg width="156" height="52" viewBox="0 0 156 52" fill="none" xmlns="http://www.w3.org/2000/svg">
<path d="M155.711 25.5928V20.6159C154.737 20.6548 151.816 21.052 150.523 22.602V20.9586H145.071V37.5406H150.523V29.7052C151.302 26.0134 154.831 25.624 155.726 25.5928H155.711ZM106.876 25.7875C106.291 25.2643 105.622 24.843 104.897 24.5413C104.301 24.2505 103.645 24.1013 102.981 24.1052C102.49 24.1003 102.003 24.204 101.556 24.4089C101.353 24.4916 101.18 24.6359 101.063 24.8217C100.945 25.0075 100.889 25.2254 100.902 25.4448C100.897 25.6673 100.963 25.8855 101.093 26.0667C101.222 26.2478 101.406 26.3822 101.618 26.4496C102.379 26.7312 103.16 26.9551 103.955 27.1194C104.602 27.2596 105.238 27.4497 105.855 27.688C106.477 27.9249 107.06 28.2531 107.585 28.6615C108.097 29.0644 108.521 29.5681 108.831 30.1414C109.157 30.7821 109.318 31.4944 109.298 32.2132C109.332 33.0909 109.134 33.9622 108.724 34.739C108.314 35.5157 107.706 36.1705 106.961 36.6371C106.248 37.0998 105.456 37.4297 104.625 37.6107C103.788 37.8115 102.931 37.9134 102.07 37.9145C100.707 37.9146 99.352 37.6936 98.0591 37.2602C96.8315 36.8784 95.7091 36.2172 94.78 35.3286L97.4749 31.9561C98.1317 32.5561 98.878 33.0501 99.6869 33.4204C100.395 33.7765 101.177 33.9606 101.969 33.9578C102.431 33.9531 102.887 33.8439 103.301 33.6385C103.511 33.5407 103.687 33.3808 103.804 33.1803C103.921 32.9798 103.974 32.7483 103.955 32.5169C103.958 32.2703 103.885 32.0288 103.745 31.8253C103.606 31.6218 103.407 31.4662 103.176 31.3798C102.364 31.0418 101.522 30.781 100.66 30.6009C100.065 30.4611 99.4795 30.2816 98.908 30.0635C98.3451 29.8449 97.8196 29.5401 97.3503 29.16C96.902 28.7775 96.5318 28.312 96.2599 27.7892C95.9558 27.1639 95.8063 26.4748 95.8237 25.7797C95.7982 24.8808 96.019 23.9919 96.4624 23.2095C96.8796 22.5053 97.4524 21.9058 98.1369 21.457C98.8169 21.0014 99.5705 20.6668 100.364 20.4679C101.163 20.2588 101.985 20.1515 102.81 20.1485C104.059 20.1473 105.3 20.3444 106.486 20.7327C107.619 21.0867 108.66 21.6879 109.532 22.4929L106.876 25.7875ZM138.786 27.096C138.779 26.3327 138.504 25.5962 138.007 25.0164C137.687 24.6887 137.298 24.4357 136.868 24.2755C136.439 24.1153 135.979 24.0518 135.523 24.0896C135.026 24.0854 134.533 24.1698 134.066 24.3388C133.642 24.4938 133.249 24.7233 132.906 25.0164C132.585 25.3028 132.321 25.6461 132.127 26.029C131.954 26.3612 131.845 26.7233 131.807 27.096H138.786ZM143.81 29.3469V30.009C143.822 30.2191 143.822 30.4297 143.81 30.6399H131.784C131.819 31.0849 131.96 31.515 132.197 31.8938C132.431 32.274 132.735 32.6069 133.092 32.8752C133.466 33.1544 133.881 33.3726 134.323 33.5217C134.777 33.6774 135.253 33.7563 135.733 33.7553C136.494 33.7775 137.248 33.6116 137.929 33.2724C138.503 32.9724 139.001 32.5463 139.386 32.0262L143.179 34.4174C142.388 35.5446 141.313 36.4422 140.063 37.0188C138.684 37.6398 137.183 37.9458 135.67 37.9145C134.47 37.9214 133.277 37.7239 132.142 37.3303C131.071 36.9656 130.083 36.391 129.237 35.6402C128.396 34.8805 127.729 33.9479 127.282 32.9064C126.784 31.735 126.54 30.4715 126.566 29.199C126.549 27.9421 126.785 26.6948 127.259 25.5305C127.695 24.4853 128.339 23.5394 129.151 22.7499C129.968 21.9783 130.929 21.3749 131.979 20.9741C133.11 20.5434 134.312 20.3294 135.523 20.3432C136.67 20.3325 137.81 20.5413 138.879 20.9586C139.874 21.3509 140.77 21.9571 141.504 22.7344C142.259 23.5468 142.842 24.5031 143.218 25.5461C143.644 26.7619 143.852 28.0432 143.833 29.3314L143.81 29.3469ZM78.1279 25.4526V20.4445H73.4547V16.7293C73.3378 14.5874 72.3253 12.9908 68.1895 12.9908V32.2833C68.1857 33.0563 68.2853 33.8264 68.4855 34.5731C68.6621 35.2292 68.9812 35.8382 69.4202 36.3567C69.8902 36.8733 70.4819 37.2642 71.1414 37.4939C72.0627 37.787 73.0254 37.929 73.9921 37.9145C75.4003 37.9317 76.8005 37.6996 78.1279 37.2291V32.7895C77.2419 33.0166 76.332 33.1369 75.4174 33.1478C75.1327 33.183 74.8436 33.1514 74.5732 33.0554C74.3028 32.9594 74.0585 32.8017 73.8597 32.5948C73.5482 32.0891 73.4089 31.4962 73.4625 30.9047V25.4526H78.1279Z" fill="#161616"/>
<path d="M121.861 28.6928L128.014 20.9042H121.503L116.051 27.7893V16.8852C115.95 14.6421 114.976 12.9909 110.778 12.9909V37.5407H116.051V29.6119L122.282 37.5407H128.863L121.861 28.6928ZM93.8533 37.5252V26.5432C93.8533 21.8154 90.0992 20.1175 86.7734 20.1175C84.1548 19.9868 81.5787 20.8178 79.53 22.4541L82.2794 25.8655C83.3865 24.8932 84.7699 24.2913 86.236 24.1443C88.2377 24.1443 88.6505 25.2892 88.6505 26.7535V27.0338H86.8513C82.2248 27.0338 79.4443 29.0355 79.4443 32.6027C79.4443 36.4971 82.8713 37.5096 87.046 37.5096L93.8533 37.5252ZM88.6505 34.0748H86.9214C85.574 34.0748 84.7484 33.514 84.7484 32.3535C84.7484 31.193 85.574 30.5232 87.2252 30.5232H88.6505V34.0748ZM48.9829 16.0051C48.9829 16.8107 49.3029 17.5833 49.8725 18.153C50.4422 18.7227 51.2148 19.0427 52.0204 19.0427C52.8261 19.0427 53.5987 18.7227 54.1683 18.153C54.738 17.5833 55.058 16.8107 55.058 16.0051C55.058 15.1995 54.738 14.4269 54.1683 13.8572C53.5987 13.2876 52.8261 12.9675 52.0204 12.9675C51.2148 12.9675 50.4422 13.2876 49.8725 13.8572C49.3029 14.4269 48.9829 15.1995 48.9829 16.0051ZM49.4969 20.4836H49.271V37.5407H54.762V24.0742C54.6063 22.0024 53.547 20.4836 49.4969 20.4836ZM66.9825 25.5929V20.616C66.0167 20.6549 63.0881 21.0522 61.7952 22.6021V20.9587H56.3431V37.5407H61.7952V29.8378C61.7914 29.7937 61.7914 29.7494 61.7952 29.7054C62.5741 26.0135 66.0945 25.6241 66.998 25.5929H66.9825ZM154.13 35.0406H153.826V35.6169H154.13C154.169 35.6191 154.208 35.6132 154.245 35.5996C154.282 35.5861 154.315 35.5652 154.344 35.5383C154.372 35.5113 154.395 35.4788 154.41 35.4428C154.426 35.4068 154.434 35.368 154.433 35.3288C154.434 35.2896 154.426 35.2508 154.41 35.2148C154.395 35.1787 154.372 35.1463 154.344 35.1193C154.315 35.0923 154.282 35.0714 154.245 35.0579C154.208 35.0444 154.169 35.0385 154.13 35.0406ZM154.433 36.6373L154.06 35.8584H153.826V36.6373H153.483V34.7446H154.215C154.293 34.7425 154.37 34.7561 154.443 34.7846C154.515 34.8131 154.581 34.856 154.636 34.9105C154.691 34.9651 154.735 35.0303 154.764 35.1021C154.794 35.174 154.808 35.2511 154.807 35.3288C154.808 35.4421 154.773 35.5529 154.708 35.6452C154.642 35.7375 154.549 35.8067 154.441 35.8428L154.854 36.6217L154.433 36.6373ZM154.075 34.3007C153.791 34.2867 153.509 34.3582 153.265 34.5061C153.022 34.6539 152.828 34.8713 152.709 35.1302C152.591 35.3891 152.552 35.6776 152.599 35.9586C152.646 36.2395 152.776 36.5 152.972 36.7064C153.168 36.9128 153.422 37.0557 153.7 37.1166C153.978 37.1775 154.269 37.1537 154.533 37.0482C154.798 36.9427 155.025 36.7603 155.184 36.5247C155.344 36.289 155.43 36.0108 155.43 35.726C155.436 35.5433 155.405 35.3613 155.339 35.1906C155.274 35.0199 155.175 34.8639 155.049 34.7314C154.923 34.5989 154.772 34.4927 154.605 34.4188C154.438 34.3448 154.258 34.3047 154.075 34.3007ZM154.075 37.4784C153.728 37.4892 153.385 37.3964 153.091 37.2119C152.796 37.0274 152.563 36.7594 152.421 36.4422C152.279 36.1249 152.235 35.7726 152.294 35.4301C152.353 35.0875 152.512 34.7702 152.752 34.5185C152.991 34.2668 153.3 34.092 153.64 34.0164C153.979 33.9407 154.333 33.9677 154.657 34.0938C154.981 34.2199 155.26 34.4394 155.458 34.7245C155.657 35.0096 155.767 35.3473 155.773 35.6948C155.779 36.1521 155.604 36.5932 155.286 36.9217C154.968 37.2501 154.532 37.4391 154.075 37.4473V37.4784ZM33.943 27.9218L36.3808 20.912L38.8187 27.9218H33.943ZM38.9433 12.9909H34.0442L26.4814 32.9766H23.5062C21.4778 33.0625 19.4679 32.5594 17.7192 31.5279C17.0222 31.0807 16.4566 30.4563 16.0803 29.7186C15.7039 28.981 15.5304 28.1566 15.5773 27.3298V24.9932H13.1628C10.917 24.9316 8.76625 24.073 7.09547 22.5709C5.79014 21.2018 4.9694 19.4427 4.75887 17.5628H21.6836C24.7601 17.5628 25.8973 19.066 26.6061 20.4135C26.9543 21.0893 27.216 21.8063 27.3849 22.5476L29.5268 16.8852C29.5268 16.8852 27.7354 12.9909 21.6836 12.9909H0V15.3275C0 19.7359 1.30849 23.2719 3.89433 25.811C5.92415 27.7319 8.49203 28.9873 11.2546 29.4094C12.2282 34.4097 16.8235 37.5252 23.5062 37.5252H30.4536L32.0114 33.0233H40.7113L42.269 37.5174H48.2118L38.9433 12.9909Z" fill="#161616"/>
</svg>
