<svg width="146" height="52" viewBox="0 0 146 52" fill="none" xmlns="http://www.w3.org/2000/svg">
<g clip-path="url(#clip0_2472_2139)">
<path d="M16.8128 6.5H0.958252V44.4167L16.8128 6.5Z" fill="#161616"/>
<path d="M27.9681 6.5H43.802V44.4167L27.9681 6.5Z" fill="#161616"/>
<path d="M22.3906 20.4748L32.4817 44.4167H25.861L22.845 36.7941H15.46L22.3906 20.4748Z" fill="#161616"/>
<path d="M69.6671 30.6126L71.5366 35.9732C71.5986 36.1074 71.6915 36.1694 71.8568 36.1694H75.4512C75.6474 36.1694 75.6784 36.0765 75.6475 35.8802L68.2211 15.2538C68.1901 15.0885 68.1591 15.0575 67.9939 15.0575H63.5319C63.4079 15.0575 63.3356 15.1505 63.3356 15.2848C63.2736 16.3693 63.1807 16.6998 63.0464 17.02L56.4257 35.8492C56.3947 36.0765 56.4671 36.1694 56.653 36.1694H59.8652C60.0614 36.1694 60.1544 36.1074 60.2267 35.9112L61.9929 30.6126H69.6671ZM63.0154 27.1111C63.9863 24.1778 65.2671 20.4181 65.7835 18.2698H65.8145C66.4549 20.5214 67.9629 24.9834 68.6446 27.1111H63.0154Z" fill="#161616"/>
<path d="M85.1947 36.4896C87.1262 36.4896 89.1816 36.1384 91.268 35.2398C91.4332 35.1778 91.4642 35.1056 91.4642 34.9506C91.4022 34.3722 91.3299 33.5356 91.3299 32.8952V13.4772C91.3299 13.3533 91.3299 13.2913 91.175 13.2913H87.6736C87.5393 13.2913 87.4773 13.3533 87.4773 13.5186V20.0979C86.9299 20.036 86.5477 20.005 86.0933 20.005C80.4435 20.005 76.973 23.7336 76.973 28.3919C76.973 33.7938 80.5364 36.4896 85.1947 36.4896ZM87.4773 32.8952C86.8989 33.0811 86.2585 33.1534 85.6078 33.1534C83.0463 33.1534 80.9496 31.7074 80.9496 28.1956C80.9496 25.0867 83.1083 23.2482 85.9693 23.2482C86.5477 23.2482 87.0538 23.3102 87.4773 23.4754V32.8952Z" fill="#161616"/>
<path d="M102.634 20.005C97.8108 20.005 94.8258 23.7027 94.8258 28.268C94.8258 32.3478 97.2014 36.4896 102.562 36.4896C107.096 36.4896 110.278 33.1534 110.278 28.1647C110.278 23.7646 107.582 20.005 102.634 20.005ZM102.438 23.2482C105.165 23.2482 106.322 25.5928 106.322 28.268C106.322 31.5731 104.617 33.2154 102.634 33.2154C100.186 33.2154 98.7404 31.16 98.7404 28.1957C98.7404 25.1487 100.279 23.2482 102.438 23.2482Z" fill="#161616"/>
<path d="M113.898 13.2913C113.763 13.2913 113.67 13.3533 113.67 13.5186V35.498C113.67 35.591 113.763 35.7563 113.898 35.7872C115.437 36.2624 117.048 36.4896 118.711 36.4896C123.472 36.4896 128.1 33.5356 128.1 27.5863C128.1 23.2792 125.146 20.005 120.518 20.005C119.454 20.005 118.463 20.1702 117.595 20.4595L117.554 13.5495C117.554 13.3223 117.492 13.2913 117.265 13.2913H113.898ZM124.144 27.9787C124.144 31.5421 121.706 33.2154 119.072 33.2154C118.525 33.2154 118.039 33.1844 117.595 33.0501V23.6717C118.101 23.4754 118.711 23.3102 119.837 23.3102C122.377 23.3102 124.144 24.9214 124.144 27.9787Z" fill="#161616"/>
<path d="M141.167 29.1356C142.737 29.1356 144.028 29.1046 144.472 29.0013C144.637 28.9703 144.699 28.9083 144.73 28.7741C144.823 28.4229 144.865 27.6895 144.865 26.7909C144.865 23.7337 143.026 20.005 138.275 20.005C133.42 20.005 130.725 23.9609 130.725 28.4229C130.725 32.3788 132.811 36.4896 138.657 36.4896C140.847 36.4896 142.262 36.1384 143.48 35.56C143.604 35.498 143.666 35.3948 143.666 35.2088V32.5337C143.666 32.3788 143.573 32.3478 143.48 32.4098C142.262 32.9262 140.94 33.1844 139.494 33.1844C136.219 33.1844 134.732 31.3769 134.639 29.1356H141.167ZM134.639 26.3675C134.897 24.7975 135.889 23.0933 138.11 23.0933C140.557 23.0933 141.198 25.1487 141.198 26.0783C141.198 26.1093 141.198 26.2435 141.198 26.3365C141.064 26.3675 140.65 26.3675 139.432 26.3675H134.639Z" fill="#161616"/>
</g>
<defs>
<clipPath id="clip0_2472_2139">
<rect width="144.083" height="52" fill="white" transform="translate(0.958252)"/>
</clipPath>
</defs>
</svg>
