<svg width="125" height="52" viewBox="0 0 125 52" fill="none" xmlns="http://www.w3.org/2000/svg">
<g clip-path="url(#clip0_2472_906)">
<path d="M34.5478 33.6741C31.0991 33.6741 28.8161 31.0616 28.1792 30.0496C28.9964 23.6479 31.3877 21.6239 34.5478 21.6239C37.6722 21.6239 40.0995 24.0716 40.0995 27.6489C40.0995 31.2263 37.6722 33.6741 34.5478 33.6741ZM34.5478 17.6935C28.9243 17.6935 25.776 21.2826 24.8748 24.9777C23.8534 23.0949 23.0964 20.5766 22.5076 18.2348H14.733V27.7078C14.733 31.144 13.1348 33.6858 10.0106 33.6858C6.88636 33.6858 5.09594 31.144 5.09594 27.7078L5.13198 18.2348H0.649902V27.7078C0.649902 30.4733 1.56314 32.9798 3.23341 34.7684C4.95174 36.616 7.29491 37.5809 10.0106 37.5809C15.4179 37.5809 19.1911 33.5211 19.1911 27.7078V21.3415C19.7558 23.4361 21.1017 27.4607 23.6731 30.9911L21.2699 44.3945H25.8241L27.4102 34.8979C27.9269 35.3215 28.4796 35.6981 29.0684 36.0394C30.5945 36.9808 32.3368 37.5103 34.1393 37.5691C34.1393 37.5691 34.4156 37.5809 34.5599 37.5809C40.1355 37.5809 44.5694 33.3564 44.5694 27.6489C44.5694 21.9416 40.1234 17.6935 34.5478 17.6935Z" fill="#161616"/>
<path d="M98.9434 20.2598V18.2358H94.5455V36.9817H99.0035V29.6387C99.0035 25.1199 99.4241 21.872 105.612 22.2956V18.0122C102.729 17.8004 100.482 18.3887 98.9434 20.2598Z" fill="#161616"/>
<path d="M67.9907 18.2362L64.7583 31.3454L61.3096 18.2362H55.638L52.1772 31.3454L48.9569 18.2362H44.4387L49.3895 36.994H54.7488L58.4738 23.6729L62.1627 36.994H67.522L72.7612 18.2362H67.9907Z" fill="#161616"/>
<path d="M82.5786 33.6858C79.4064 33.6858 77.0271 31.2382 77.0271 27.6489C77.0271 24.0598 79.4184 21.6239 82.5786 21.6239C85.7029 21.6239 88.1303 24.0716 88.1303 27.6489C88.1303 31.2263 85.7029 33.6858 82.5786 33.6858ZM82.5786 17.6935C76.967 17.6935 72.5691 21.9534 72.5691 27.6489C72.5691 33.3445 76.967 37.5691 82.5786 37.5691C88.1542 37.5691 92.5883 33.3445 92.5883 27.6489C92.5883 21.9534 88.1663 17.6935 82.5786 17.6935Z" fill="#161616"/>
<path d="M112.006 27.767H113.039L119.264 36.9928H124.299L117.137 26.7667C120.61 25.437 122.941 21.9655 122.941 18.2351H118.495C118.495 22.2832 115.238 23.813 112.006 23.813V10.8333H107.536V36.9928H111.994L112.006 27.767Z" fill="#161616"/>
</g>
<defs>
<clipPath id="clip0_2472_906">
<rect width="123.5" height="52" fill="white" transform="translate(0.649902)"/>
</clipPath>
</defs>
</svg>
