<svg width="123" height="52" viewBox="0 0 123 52" fill="none" xmlns="http://www.w3.org/2000/svg">
<g clip-path="url(#clip0_2472_2653)">
<path d="M31.8173 36.8192V13.0343H35.5126V22.4113C36.6764 20.678 38.4218 19.811 40.7488 19.8104C42.7336 19.8104 44.2679 20.3979 45.3518 21.5728C46.4357 22.7477 46.9778 24.3847 46.9779 26.4838V36.8192H43.2824V26.9972C43.2824 24.2824 42.0731 22.9249 39.6545 22.9246C38.445 22.9246 37.4526 23.2896 36.6773 24.0197C35.9021 24.7498 35.514 25.7765 35.5133 27.0998V36.8189L31.8173 36.8192Z" fill="#161616"/>
<path d="M64.4427 34.7664C62.8 36.4091 60.7354 37.2304 58.2485 37.2304C55.7618 37.2304 53.6913 36.4091 52.0369 34.7664C50.3827 33.1236 49.5557 31.0357 49.5558 28.5026C49.5559 25.9696 50.383 23.8879 52.0369 22.2573C53.691 20.6264 55.7615 19.8107 58.2485 19.8104C60.7356 19.81 62.8003 20.6257 64.4427 22.2573C66.0857 23.8888 66.9071 25.9706 66.907 28.5026C66.9068 31.0346 66.0854 33.1225 64.4427 34.7664ZM54.7407 32.6785C55.6184 33.7052 56.7878 34.2186 58.2485 34.2186C59.7094 34.2186 60.8786 33.7052 61.7563 32.6785C62.6343 31.6518 63.0735 30.2599 63.0739 28.5026C63.0739 26.7689 62.6291 25.3885 61.7393 24.3617C60.8496 23.3348 59.686 22.8215 58.2485 22.8216C56.7882 22.8216 55.6188 23.3292 54.7407 24.3445C53.8625 25.3598 53.4233 26.7456 53.4231 28.5019C53.4231 30.2599 53.8622 31.6521 54.7407 32.6785Z" fill="#161616"/>
<path d="M75.4611 37.2298C72.0612 37.2298 70.3613 35.4045 70.3613 31.754V23.3353H67.7953V20.2211H70.4646L71.3203 15.3282H74.0919V20.2211H80.6969V23.3353H74.0922V31.6516C74.0922 33.1804 74.6512 33.9447 75.7691 33.9446C76.8183 33.9446 77.7651 32.9862 78.6095 31.0697L81.4844 32.5414C80.0695 35.6674 78.0617 37.2301 75.4611 37.2298Z" fill="#161616"/>
<path d="M82.6725 44.4167C81.0298 44.4167 79.6722 43.9604 78.6 43.0477L79.969 40.1388C80.6308 40.9141 81.3495 41.3021 82.1251 41.3029C83.1516 41.3029 83.6649 40.6413 83.6649 39.318V20.2211H87.3604V39.3856C87.3604 41.1652 86.9212 42.4486 86.0427 43.2356C85.1644 44.0227 84.041 44.4163 82.6725 44.4167ZM85.513 17.4146C84.9054 17.4352 84.3145 17.2137 83.8703 16.7988C83.6565 16.5974 83.4882 16.3529 83.3761 16.0815C83.2641 15.8101 83.2109 15.518 83.2202 15.2245C83.212 14.9286 83.2656 14.6343 83.3775 14.3603C83.4895 14.0863 83.6573 13.8386 83.8703 13.6331C84.317 13.2258 84.8998 13 85.5044 13C86.109 13 86.6919 13.2258 87.1386 13.6331C87.3561 13.836 87.5281 14.0828 87.6431 14.3572C87.7581 14.6315 87.8137 14.9271 87.806 15.2245C87.8113 15.5165 87.7547 15.8063 87.6396 16.0747C87.5245 16.3432 87.3538 16.5841 87.1386 16.7816C86.9226 16.9889 86.6679 17.1516 86.389 17.2602C86.11 17.3688 85.8123 17.4213 85.513 17.4146Z" fill="#161616"/>
<path d="M96.5394 37.23C94.6454 37.23 93.1109 36.7565 91.9363 35.8098C90.7616 34.863 90.1743 33.5914 90.174 31.9948C90.174 30.5347 90.7843 29.2967 92.0049 28.2808C93.2255 27.265 94.7598 26.7574 96.6077 26.758C98.5015 26.758 100.099 27.3627 101.399 28.5719V26.5525C101.399 25.3665 101.097 24.4482 100.492 23.7975C99.8873 23.1469 99.026 22.8218 97.9084 22.8221C95.6497 22.8221 94.2465 23.9742 93.6988 26.2785L90.3107 25.5599C90.7665 23.7804 91.6677 22.3773 93.0145 21.3506C94.3612 20.3239 96.038 19.8105 98.0451 19.8105C100.236 19.8105 101.964 20.3866 103.23 21.5389C104.496 22.6911 105.129 24.3737 105.129 26.5865V36.8193H101.536V34.7314C100.326 36.3973 98.6608 37.2302 96.5394 37.23ZM97.223 34.4921C98.8659 34.4921 100.258 33.6709 101.399 32.0283V31.5144C100.258 30.1455 98.8658 29.461 97.223 29.4612C96.2649 29.4612 95.4889 29.6952 94.8949 30.1633C94.6141 30.3701 94.3868 30.6411 94.2321 30.9537C94.0772 31.2662 93.9995 31.6112 94.005 31.9598C93.996 32.3122 94.0704 32.6617 94.222 32.98C94.3737 33.298 94.5985 33.576 94.8779 33.7908C95.4609 34.2585 96.2421 34.4923 97.223 34.4921Z" fill="#161616"/>
<path d="M108.725 36.8192V20.2211H112.319V23.0957C113.231 20.9969 114.805 19.9474 117.042 19.9472C118.364 19.9472 119.46 20.3807 120.327 21.2477C121.195 22.1146 121.628 23.2782 121.627 24.7384C121.618 25.6123 121.468 26.4791 121.182 27.3051L117.794 26.9629C117.864 26.5093 117.909 26.0524 117.931 25.5941C117.931 23.8829 117.224 23.0273 115.809 23.0272C114.851 23.0272 114.047 23.5348 113.397 24.5501C112.747 25.5654 112.421 26.9058 112.421 28.5715V36.8192H108.725Z" fill="#161616"/>
<path d="M8.73624 22.7605C11.4905 21.2304 15.2626 19.1344 15.2626 13.0341H10.695C10.695 16.4472 9.03335 17.3704 6.51804 18.7678C3.76383 20.2984 -0.00830078 22.3936 -0.00830078 28.4944H4.55928C4.55928 25.0811 6.22093 24.158 8.73624 22.7605Z" fill="#161616"/>
<path d="M16.6417 21.3587C16.6417 24.772 14.98 25.6951 12.4647 27.0923C9.71126 28.6224 5.93839 30.7182 5.93839 36.8189H10.5058C10.5058 33.4056 12.1674 32.4825 14.6827 31.0851C17.4369 29.555 21.2089 27.4595 21.2089 21.3587H16.6417Z" fill="#161616"/>
</g>
<defs>
<clipPath id="clip0_2472_2653">
<rect width="122.417" height="52" fill="white" transform="translate(-0.00830078)"/>
</clipPath>
</defs>
</svg>
