<svg width="183" height="52" viewBox="0 0 183 52" fill="none" xmlns="http://www.w3.org/2000/svg">
<g clip-path="url(#clip0_2472_2700)">
<path fill-rule="evenodd" clip-rule="evenodd" d="M48.5667 10.948L33.1334 41.1183H18.6373L25.0961 28.6144H24.8063C19.4779 35.5314 11.5277 40.0849 0.199951 41.1183V28.7875C0.199951 28.7875 7.44659 28.3595 11.7067 23.8806H0.199951V10.9482H13.1323V21.5849L13.4225 21.5837L18.7071 10.9482H28.4875V21.5174L28.7778 21.517L34.2606 10.948H48.5667Z" fill="#161616"/>
<path d="M132.725 37.7881H136.89V13.8812H132.725V37.7881Z" fill="#161616"/>
<path fill-rule="evenodd" clip-rule="evenodd" d="M109.764 37.544C110.669 37.9204 111.59 38.1084 112.525 38.1084C114.071 38.1084 115.455 37.7322 116.675 36.9795C117.896 36.2269 118.842 35.1893 119.513 33.8672C120.184 32.5348 120.52 31.0245 120.52 29.336C120.52 27.6476 120.174 26.1372 119.482 24.8048C118.791 23.4725 117.83 22.4401 116.599 21.7078C115.368 20.9653 113.97 20.5991 112.403 20.6093C111.407 20.6093 110.451 20.8026 109.535 21.1891C108.62 21.5756 107.857 22.1248 107.247 22.8368C107.2 22.891 107.154 22.9457 107.109 23.001V13.8965H102.929V37.7881H107.079L107.071 35.5562C107.178 35.6878 107.293 35.8163 107.415 35.942C108.076 36.6236 108.859 37.1575 109.764 37.544ZM114.036 33.6841C113.354 34.101 112.576 34.3097 111.702 34.3097C110.837 34.3097 110.044 34.096 109.322 33.6688C108.599 33.2314 108.025 32.6365 107.598 31.8839C107.181 31.1312 106.972 30.2769 106.972 29.3208C106.962 28.3647 107.165 27.5103 107.582 26.7577C108.01 25.9948 108.584 25.4049 109.306 24.9879C110.028 24.5607 110.827 24.3522 111.702 24.3624C112.576 24.3522 113.354 24.5557 114.036 24.9727C114.727 25.3795 115.256 25.9643 115.623 26.7272C115.999 27.4798 116.187 28.3444 116.187 29.3208C116.187 30.2971 115.999 31.1617 115.623 31.9144C115.256 32.667 114.727 33.2569 114.036 33.6841Z" fill="#161616"/>
<path d="M54.6007 15.3306H59.3607L63.6188 30.881L68.1485 15.3306H72.1151L77.0278 30.569L81.1164 15.3306H85.4797L79.0415 37.7881H74.9375L69.9422 22.9014L65.3565 37.7881H61.2067L54.6007 15.3306Z" fill="#161616"/>
<path fill-rule="evenodd" clip-rule="evenodd" d="M92.509 38.1848C90.8511 38.1949 89.356 37.8287 88.0235 37.0863C86.7014 36.3336 85.6589 35.2911 84.896 33.9587C84.1434 32.6263 83.767 31.1057 83.767 29.397C83.767 27.7392 84.1536 26.2389 84.9265 24.8964C85.6994 23.5538 86.7472 22.5062 88.0693 21.7536C89.3915 21.0009 90.8663 20.6246 92.4937 20.6246C94.3245 20.6246 95.9264 21.0314 97.2995 21.8451C98.6828 22.6588 99.7151 23.8132 100.397 25.3083C101.088 26.7933 101.337 28.4969 101.144 30.4191H88.0758C88.1123 31.185 88.3034 31.8818 88.6491 32.5093C89.0356 33.2009 89.5747 33.74 90.2662 34.1265C90.9578 34.513 91.7309 34.7062 92.5853 34.7062C93.2362 34.6961 93.8413 34.5842 94.4007 34.3707C94.9601 34.1469 95.4331 33.8468 95.8197 33.4706C96.2162 33.0942 96.4959 32.667 96.6586 32.189H101.022C100.758 33.3586 100.229 34.4012 99.4354 35.3165C98.642 36.2217 97.6452 36.9286 96.4451 37.4372C95.2449 37.9457 93.9328 38.1949 92.509 38.1848ZM88.6644 26.2237C88.4205 26.6487 88.2518 27.1064 88.1578 27.5968H96.8204C96.7575 26.9773 96.5663 26.4128 96.2467 25.9033C95.8807 25.3032 95.3823 24.8404 94.7517 24.515C94.121 24.1793 93.4091 24.0115 92.6158 24.0115C91.7716 24.0115 91.0037 24.2048 90.3121 24.5912C89.6205 24.9778 89.0711 25.5219 88.6644 26.2237Z" fill="#161616"/>
<path d="M123.586 20.9755C123.586 19.6126 123.897 18.4022 124.517 17.3444C125.137 16.2765 126.007 15.4476 127.126 14.8576C128.255 14.2576 129.572 13.9473 131.077 13.927V17.6343C130.375 17.6445 129.775 17.792 129.277 18.0768C128.789 18.3514 128.412 18.7531 128.148 19.282C127.904 19.7689 127.773 20.3334 127.754 20.9755H130.986V24.4997H127.751V37.7881H123.586V24.4997H120.901V20.9755H123.586Z" fill="#161616"/>
<path fill-rule="evenodd" clip-rule="evenodd" d="M147.478 38.1543C145.779 38.1543 144.259 37.7829 142.916 37.0405C141.584 36.2879 140.536 35.2503 139.773 33.9282C139.021 32.5958 138.644 31.0855 138.644 29.397C138.644 27.6985 139.021 26.183 139.773 24.8506C140.536 23.508 141.584 22.4655 142.916 21.723C144.259 20.9806 145.779 20.6093 147.478 20.6093C149.186 20.6093 150.712 20.9806 152.055 21.723C153.407 22.4655 154.46 23.5029 155.213 24.8354C155.965 26.1677 156.347 27.6883 156.357 29.397C156.347 31.0855 155.965 32.5958 155.213 33.9282C154.47 35.2503 153.423 36.2879 152.07 37.0405C150.717 37.7829 149.186 38.1543 147.478 38.1543ZM147.478 34.3249C148.373 34.3249 149.166 34.1215 149.858 33.7146C150.549 33.2976 151.083 32.7178 151.46 31.9754C151.836 31.2227 152.024 30.3633 152.024 29.397C152.024 28.4207 151.836 27.5561 151.46 26.8034C151.083 26.0508 150.549 25.471 149.858 25.0642C149.166 24.6472 148.373 24.4387 147.478 24.4387C146.593 24.4387 145.805 24.6472 145.113 25.0642C144.431 25.471 143.903 26.0508 143.526 26.8034C143.15 27.5561 142.967 28.4207 142.977 29.397C142.977 30.3633 143.165 31.2227 143.542 31.9754C143.928 32.7178 144.457 33.2976 145.128 33.7146C145.81 34.1215 146.593 34.3249 147.478 34.3249Z" fill="#161616"/>
<path d="M160.858 20.9755H156.22L161.239 37.7881H165.297L168.599 27.0499L172.163 37.7881H176.16L181.194 20.9755H177L174.144 31.4402L170.988 20.9755H166.93L163.789 31.6708L160.858 20.9755Z" fill="#161616"/>
</g>
<defs>
<clipPath id="clip0_2472_2700">
<rect width="182" height="52" fill="white" transform="translate(0.199951)"/>
</clipPath>
</defs>
</svg>
