<svg width="123" height="52" viewBox="0 0 123 52" fill="none" xmlns="http://www.w3.org/2000/svg">
<g clip-path="url(#clip0_2472_2045)">
<path fill-rule="evenodd" clip-rule="evenodd" d="M121.502 33.1104C116.455 41.6657 108.464 39.1833 106.064 37.2396C105.042 37.9326 103.251 39.4518 100.862 39.2764C95.776 38.903 93.9545 31.6341 93.9545 31.6341C93.991 31.6632 92.4393 32.1696 91.6007 32.1605C91.5899 34.2922 89.7472 39.3843 84.7743 39.3191C79.194 39.2463 78.0595 30.9326 78.0595 30.9326C78.0595 30.9326 77.5042 31.7037 75.3927 32.4718C75.499 30.8341 75.4213 39.0698 68.7331 39.1909C63.4456 39.2867 62.0183 30.8044 62.0183 30.8044C62.0183 30.8044 61.101 31.7573 59.3233 32.0878C59.4363 30.4234 59.2526 39.2189 52.5636 39.1909C48.0432 39.1721 46.4985 33.9658 46.6186 33.2432C46.7719 32.3223 45.0909 39.3204 40.7 39.2114C38.888 39.1582 37.5371 37.8462 36.6895 36.0972C35.5547 37.3956 33.9072 39.2114 32.059 39.2114C28.7414 39.2114 27.2788 36.4365 27.5265 28.5112C27.5476 27.5712 27.4798 27.2014 26.5454 27.0608C25.9845 26.9672 25.4101 26.7901 24.8024 26.6967C24.6076 27.3467 22.9554 38.9999 17.2744 39.2211C15.3685 39.2953 14.3263 37.6443 13.4705 36.4189C12.1586 38.1545 10.4267 39.2764 7.9596 39.2764C3.78047 39.2764 0.933105 35.8979 0.933105 31.7304C0.933105 27.5628 3.78047 24.1847 7.9596 24.1847C8.69851 24.1847 8.90594 24.2906 9.58098 24.4875C8.19274 11.8479 11.4712 9.87253 14.3392 9.87253C17.0926 9.87253 21.7965 16.2631 15.1777 32.4731C16.6472 37.3081 19.8151 37.0346 21.3375 27.0815C21.6473 25.0583 20.8188 22.3282 22.1074 21.9471C24.463 21.2507 24.7129 23.3401 25.8173 23.6882C26.9852 24.0561 27.6668 24.0202 28.7879 24.2543C30.7036 24.6284 31.4512 25.6576 31.2178 27.9497C30.9375 30.8499 30.4472 35.0711 31.9422 35.5855C33.0202 35.9592 34.9886 33.7235 35.334 32.5002C35.6792 31.2769 35.7514 30.8583 35.7821 29.961C35.8288 28.0434 35.8874 26.6377 36.2144 25.1875C36.3544 24.6263 36.5139 24.2546 37.1488 24.2292C37.6712 24.2159 38.6266 24.0586 39.0472 24.386C39.6078 24.8071 39.5377 25.2345 39.4734 26.3593C38.8214 42.3966 43.8391 34.3907 45.3352 27.9803C44.8025 20.7317 45.1683 10.0053 49.7106 9.82536C52.0729 9.7318 53.1173 11.6243 53.2322 13.0369C53.5571 17.0266 51.737 23.6354 49.3434 28.0798C47.9753 37.1484 55.3247 38.9414 56.5 31.7029C54.5772 30.7887 52.4991 27.0882 54.1901 25.2848C55.139 24.2727 59.0888 25.7266 59.1535 28.8977C61.091 28.3796 61.3497 27.2857 61.3765 27.467C60.8439 20.2183 61.3379 10.0054 65.8805 9.82545C68.2426 9.73189 69.2868 11.6244 69.4017 13.037C69.7266 17.0266 67.9065 23.6355 65.5132 28.0799C64.145 37.1484 71.4946 38.9416 72.6695 31.7031C71.2459 31.4284 68.2407 27.4924 69.9746 25.2849C70.9013 24.1052 74.8366 26.5584 75.2772 29.0028C77.1385 28.4761 77.3912 27.4169 77.4179 27.5952C76.8852 20.3468 77.3792 10.1338 81.9218 9.95391C84.2838 9.86036 85.3281 11.7529 85.4429 13.1655C85.7679 17.1551 83.9478 23.7641 81.5541 28.2085C80.1863 37.2771 87.5357 39.0698 88.711 31.8313C86.7546 31.5056 83.9742 27.3497 86.212 25.2236C87.106 24.3742 90.5223 26.5792 91.322 29.0949C92.4331 29.0522 93.1247 28.6689 93.273 28.6303C91.4992 20.1209 92.8197 9.91081 97.7063 9.82558C100.348 9.77956 102.93 11.2535 101.796 19.3491C100.714 27.0732 96.8256 30.3147 96.8346 30.3643C97.0609 31.2897 99.0564 39.0339 104.081 34.9478C103.821 34.3588 103.561 33.757 103.415 33.0281C102.582 28.7818 104.218 23.9855 108.665 23.2104C111.212 22.7662 113.612 24.0066 113.992 26.8028C114.616 31.3783 110.484 34.6919 108.913 35.4108C108.21 35.011 115.292 39.5533 119.495 30.4504C119.739 29.9307 120.033 29.9747 120.414 30.2426C120.682 30.4318 122.214 31.8825 121.502 33.1104ZM10.9995 30.6061C10.7857 29.9668 10.3468 28.5579 10.1916 27.9474C9.33682 27.2041 8.72672 27.0834 7.62956 27.0834C5.19133 27.0834 3.75623 29.3377 3.75623 31.7686C3.75623 34.1992 5.31966 36.4539 7.75791 36.4539C9.87092 36.4539 11.4791 35.0172 11.9698 32.9834C11.6263 32.1906 11.2857 31.4619 10.9995 30.6061ZM14.2794 13.2183C12.5662 13.2183 11.985 17.3053 12.0978 20.7918C12.1976 23.8743 13.0589 26.5881 13.5058 27.8041C13.6192 27.9565 13.5981 27.8573 13.6994 28.0189C16.6741 21.5012 15.4403 13.2183 14.2794 13.2183ZM49.9553 13.3467C47.741 13.0927 47.7553 22.3169 48.0302 24.386C49.1802 22.5462 51.1779 13.8421 49.9553 13.3467ZM66.1247 13.3467C63.9105 13.0927 63.9248 22.3169 64.1998 24.386C65.3497 22.5462 67.3476 13.8421 66.1247 13.3467ZM82.1662 13.475C79.9517 13.2211 79.966 22.4453 80.2411 24.5145C81.391 22.6746 83.3888 13.9704 82.1662 13.475ZM97.9507 12.8067C94.5007 13.4995 95.3041 25.0023 95.8281 27.0197C99.8918 21.4382 99.9756 12.5971 97.9507 12.8067ZM110.88 27.1813C110.705 26.4478 109.828 26.0559 109.222 26.1525C107.49 26.389 105.81 28.5464 106.46 31.831C106.605 32.5625 106.967 33.2359 106.962 33.2135C110.838 30.6126 111.168 28.5631 110.88 27.1813ZM37.8279 21.6904C37.3328 21.6905 36.8488 21.5437 36.4371 21.2687C36.0255 20.9937 35.7045 20.6028 35.515 20.1454C35.3254 19.6881 35.2758 19.1847 35.3724 18.6991C35.4689 18.2135 35.7074 17.7675 36.0574 17.4174C36.4074 17.0673 36.8534 16.8288 37.339 16.7322C37.8246 16.6356 38.3279 16.6852 38.7854 16.8747C39.2428 17.0641 39.6337 17.385 39.9087 17.7967C40.1838 18.2083 40.3306 18.6923 40.3306 19.1874C40.3306 19.5161 40.2659 19.8415 40.1401 20.1452C40.0144 20.4489 39.8301 20.7248 39.5976 20.9572C39.3652 21.1896 39.0893 21.374 38.7857 21.4998C38.4821 21.6256 38.1566 21.6903 37.8279 21.6904Z" fill="#161616"/>
</g>
<defs>
<clipPath id="clip0_2472_2045">
<rect width="121.333" height="52" fill="white" transform="translate(0.933105)"/>
</clipPath>
</defs>
</svg>
