<svg width="523" height="311" viewBox="0 0 523 311" fill="none" xmlns="http://www.w3.org/2000/svg">
<path d="M0 125.023V2.97675H82.4222V25.3899H25.2927V51.13H79.0617V73.5431H25.2927V102.61H82.4222V125.023H0Z" fill="url(#paint0_linear_2342_20559)"/>
<path d="M92.5385 125.023L133.219 64.2627L92.5385 2.97675H122.96L150.729 46.9275L178.675 2.97675H208.743L168.24 64.2627L208.92 125.023H178.675L150.552 82.2982L122.96 125.023H92.5385Z" fill="url(#paint1_linear_2342_20559)"/>
<path d="M268.493 128C256.701 128 246.325 125.315 237.363 119.945C228.402 114.575 221.386 107.104 216.316 97.5321C211.363 87.9599 208.887 76.7533 208.887 63.9124C208.887 51.0716 211.363 39.9234 216.316 30.4679C221.386 20.8956 228.402 13.4245 237.363 8.05472C246.325 2.68491 256.701 0 268.493 0C281.817 0 293.255 3.32695 302.806 9.98085C312.475 16.518 319.432 25.565 323.677 37.1217L299.799 45.7018C297.323 38.8144 293.373 33.503 287.949 29.7674C282.642 25.9152 276.157 23.9891 268.493 23.9891C261.536 23.9891 255.463 25.6233 250.275 28.8919C245.087 32.0438 241.078 36.5964 238.248 42.5499C235.536 48.5034 234.18 55.6243 234.18 63.9124C234.18 72.2006 235.536 79.3798 238.248 85.4501C241.078 91.4035 245.087 96.0146 250.275 99.2832C255.463 102.435 261.536 104.011 268.493 104.011C276.157 104.011 282.642 102.085 287.949 98.2326C293.373 94.3803 297.323 89.0689 299.799 82.2982L323.677 90.8783C319.432 102.318 312.475 111.365 302.806 118.019C293.255 124.673 281.817 128 268.493 128Z" fill="url(#paint2_linear_2342_20559)"/>
<path d="M339.407 125.023V2.97675H364.7V102.61H416.169V125.023H339.407Z" fill="url(#paint3_linear_2342_20559)"/>
<path d="M474.891 128C458.972 128 446.945 124.089 438.809 116.268C430.791 108.447 426.782 96.6566 426.782 80.8974V2.97675H452.074V78.0958C452.074 84.0492 452.664 89.0105 453.843 92.9795C455.022 96.9485 457.263 99.9252 460.564 101.91C463.984 103.894 468.759 104.886 474.891 104.886C481.022 104.886 485.68 103.894 488.864 101.91C492.165 99.9252 494.465 96.9485 495.762 92.9795C497.059 89.0105 497.707 84.1076 497.707 78.2709V2.97675H523V80.0219C523 96.1313 518.932 108.155 510.796 116.093C502.66 124.031 490.691 128 474.891 128Z" fill="url(#paint4_linear_2342_20559)"/>
<path d="M48.5115 311C35.1047 311 24.1088 307.542 15.5237 300.626C7.05622 293.711 1.88166 284.509 0 273.022L24.6968 266.868C25.9904 274.136 28.8129 279.586 33.1643 283.22C37.5156 286.853 42.9254 288.67 49.3936 288.67C52.6865 288.67 55.6854 288.143 58.3903 287.088C61.0951 285.916 63.212 284.275 64.7409 282.165C66.2697 280.055 67.0341 277.535 67.0341 274.604C67.0341 271.908 66.2109 269.564 64.5645 267.571C63.0356 265.462 60.5659 263.527 57.1554 261.769C53.7449 260.011 49.3936 258.136 44.1014 256.143C36.1043 252.978 29.4597 249.637 24.1676 246.121C18.8754 242.487 14.9357 238.326 12.3484 233.637C9.87871 228.949 8.64388 223.498 8.64388 217.286C8.64388 210.604 10.2903 204.685 13.5832 199.527C16.8761 194.37 21.4627 190.326 27.3429 187.396C33.3407 184.465 40.2793 183 48.1587 183C56.6262 183 64.094 184.934 70.5622 188.802C77.0304 192.67 82.2638 198.473 86.2623 206.209L66.1521 218.341C63.8 214.121 61.0363 210.897 57.861 208.67C54.6857 206.443 51.1576 205.33 47.2767 205.33C44.807 205.33 42.5726 205.799 40.5733 206.736C38.574 207.674 36.9276 209.022 35.6339 210.78C34.4579 212.538 33.8699 214.531 33.8699 216.758C33.8699 219.103 34.5755 221.271 35.9867 223.264C37.398 225.139 39.8089 227.015 43.2194 228.89C46.7475 230.766 51.3928 232.817 57.1554 235.044C64.9173 237.857 71.3267 241.022 76.3836 244.538C81.5582 247.938 85.4391 251.923 88.0264 256.495C90.7313 261.066 92.0837 266.575 92.0837 273.022C92.0837 280.407 90.2609 286.971 86.6152 292.714C82.9694 298.458 77.8537 302.971 71.2679 306.253C64.7997 309.418 57.2142 311 48.5115 311Z" fill="url(#paint5_linear_2342_20559)"/>
<path d="M109.037 308.538V185.989H134.263V308.538H109.037Z" fill="url(#paint6_linear_2342_20559)"/>
<path d="M195.75 308.538L146.356 185.989H174.228L209.333 277.593H201.218L235.617 185.989H263.666L214.449 308.538H195.75Z" fill="url(#paint7_linear_2342_20559)"/>
<path d="M275.795 308.538V185.989H358V208.495H301.021V234.341H354.648V256.846H301.021V286.033H358V308.538H275.795Z" fill="url(#paint8_linear_2342_20559)"/>
<defs>
<linearGradient id="paint0_linear_2342_20559" x1="-11.1443" y1="63.7372" x2="533.621" y2="63.7372" gradientUnits="userSpaceOnUse">
<stop stop-color="#006F69"/>
<stop offset="1" stop-color="#006F69" stop-opacity="0"/>
</linearGradient>
<linearGradient id="paint1_linear_2342_20559" x1="-11.1443" y1="63.7372" x2="533.621" y2="63.7372" gradientUnits="userSpaceOnUse">
<stop stop-color="#006F69"/>
<stop offset="1" stop-color="#006F69" stop-opacity="0"/>
</linearGradient>
<linearGradient id="paint2_linear_2342_20559" x1="-11.1443" y1="63.7372" x2="533.621" y2="63.7372" gradientUnits="userSpaceOnUse">
<stop stop-color="#006F69"/>
<stop offset="1" stop-color="#006F69" stop-opacity="0"/>
</linearGradient>
<linearGradient id="paint3_linear_2342_20559" x1="-11.1443" y1="63.7372" x2="533.621" y2="63.7372" gradientUnits="userSpaceOnUse">
<stop stop-color="#006F69"/>
<stop offset="1" stop-color="#006F69" stop-opacity="0"/>
</linearGradient>
<linearGradient id="paint4_linear_2342_20559" x1="-11.1443" y1="63.7372" x2="533.621" y2="63.7372" gradientUnits="userSpaceOnUse">
<stop stop-color="#006F69"/>
<stop offset="1" stop-color="#006F69" stop-opacity="0"/>
</linearGradient>
<linearGradient id="paint5_linear_2342_20559" x1="-4.23442" y1="247" x2="366.217" y2="247" gradientUnits="userSpaceOnUse">
<stop stop-color="#006F69" stop-opacity="0"/>
<stop offset="1" stop-color="#006F69"/>
</linearGradient>
<linearGradient id="paint6_linear_2342_20559" x1="-4.23442" y1="247" x2="366.217" y2="247" gradientUnits="userSpaceOnUse">
<stop stop-color="#006F69" stop-opacity="0"/>
<stop offset="1" stop-color="#006F69"/>
</linearGradient>
<linearGradient id="paint7_linear_2342_20559" x1="-4.23442" y1="247" x2="366.217" y2="247" gradientUnits="userSpaceOnUse">
<stop stop-color="#006F69" stop-opacity="0"/>
<stop offset="1" stop-color="#006F69"/>
</linearGradient>
<linearGradient id="paint8_linear_2342_20559" x1="-4.23442" y1="247" x2="366.217" y2="247" gradientUnits="userSpaceOnUse">
<stop stop-color="#006F69" stop-opacity="0"/>
<stop offset="1" stop-color="#006F69"/>
</linearGradient>
</defs>
</svg>
