<svg width="42" height="42" viewBox="0 0 42 42" fill="none" xmlns="http://www.w3.org/2000/svg">
<path d="M12.2173 28.462L4.75536 21L12.2173 13.538L13.9959 15.3812L8.37719 21L13.9959 26.6187L12.2173 28.462ZM29.784 28.462L28.0054 26.6187L33.6241 21L28.0054 15.3812L29.784 13.538L37.2459 21L29.784 28.462ZM0.333984 41.6667V28.75H2.91732V39.0833H13.2507V41.6667H0.333984ZM28.7507 41.6667V39.0833H39.084V28.75H41.6673V41.6667H28.7507ZM0.333984 13.25V0.333332H13.2507V2.91667H2.91732V13.25H0.333984ZM39.084 13.25V2.91667H28.7507V0.333332H41.6673V13.25H39.084Z" fill="#006F69"/>
</svg>
