<svg width="28" height="28" viewBox="0 0 28 28" fill="none" xmlns="http://www.w3.org/2000/svg">
<rect width="28" height="28" rx="14" fill="white"/>
<g clip-path="url(#clip0_2472_2769)">
<path d="M9.56249 8.01123C8.69903 8.01123 8.00014 8.71138 8 9.57288C8 10.4352 8.69889 11.1352 9.56263 11.1352C10.424 11.1352 11.1239 10.4352 11.1239 9.57288C11.1239 8.71124 10.4238 8.01123 9.56249 8.01123Z" fill="#161616"/>
<path d="M8.21484 12.3203H10.9091V20.9889H8.21484V12.3203Z" fill="#161616"/>
<path d="M17.768 12.1045C16.4574 12.1045 15.5786 12.8231 15.2189 13.5045H15.1828V12.32H12.5988H12.5986V20.9885H15.2906V16.7002C15.2906 15.5696 15.5058 14.4746 16.9075 14.4746C18.2891 14.4746 18.3075 15.7676 18.3075 16.7727V20.9884H20.9999V16.2337C20.9999 13.8999 20.4963 12.1045 17.768 12.1045Z" fill="#161616"/>
</g>
<defs>
<clipPath id="clip0_2472_2769">
<rect width="13" height="13" fill="white" transform="translate(8 8)"/>
</clipPath>
</defs>
</svg>
