<svg width="28" height="28" viewBox="0 0 28 28" fill="none" xmlns="http://www.w3.org/2000/svg">
<rect width="28" height="28" rx="14" fill="white"/>
<path d="M12.4639 14.8322C12.4159 14.8322 11.3599 14.8322 10.8799 14.8322C10.6239 14.8322 10.5439 14.7362 10.5439 14.4962C10.5439 13.8562 10.5439 13.2002 10.5439 12.5602C10.5439 12.3042 10.6399 12.2242 10.8799 12.2242H12.4639C12.4639 12.1762 12.4639 11.2482 12.4639 10.8162C12.4639 10.1762 12.5759 9.56821 12.8959 9.00821C13.2319 8.43221 13.7119 8.04821 14.3199 7.82421C14.7199 7.68021 15.1199 7.61621 15.5519 7.61621H17.1199C17.3439 7.61621 17.4399 7.71221 17.4399 7.93621V9.76021C17.4399 9.98421 17.3439 10.0802 17.1199 10.0802C16.6879 10.0802 16.2559 10.0802 15.8239 10.0962C15.3919 10.0962 15.1679 10.3042 15.1679 10.7522C15.1519 11.2322 15.1679 11.6962 15.1679 12.1922H17.0239C17.2799 12.1922 17.3759 12.2882 17.3759 12.5442V14.4802C17.3759 14.7362 17.2959 14.8162 17.0239 14.8162C16.4479 14.8162 15.2159 14.8162 15.1679 14.8162V20.0322C15.1679 20.3042 15.0879 20.4002 14.7999 20.4002C14.1279 20.4002 13.4719 20.4002 12.7999 20.4002C12.5599 20.4002 12.4639 20.3042 12.4639 20.0642C12.4639 18.3842 12.4639 14.8802 12.4639 14.8322Z" fill="#161616"/>
</svg>
