<svg width="52" height="52" viewBox="0 0 52 52" fill="none" xmlns="http://www.w3.org/2000/svg">
<mask id="mask0_2450_2459" style="mask-type:alpha" maskUnits="userSpaceOnUse" x="0" y="0" width="52" height="52">
<rect width="52" height="52" fill="#D9D9D9"/>
</mask>
<g mask="url(#mask0_2450_2459)">
<path d="M24.9722 35.1709H27.0278V16.0383H24.9722V35.1709ZM26.0067 44.5C23.4485 44.5 21.0434 44.0145 18.7912 43.0436C16.5393 42.0727 14.5804 40.7551 12.9143 39.0908C11.2483 37.4265 9.9295 35.4693 8.9579 33.2191C7.98597 30.9693 7.5 28.5652 7.5 26.0067C7.5 23.4485 7.98545 21.0434 8.95636 18.7912C9.92727 16.5393 11.2449 14.5804 12.9092 12.9143C14.5735 11.2483 16.5307 9.9295 18.7809 8.9579C21.0307 7.98597 23.4348 7.5 25.9933 7.5C28.5515 7.5 30.9566 7.98546 33.2088 8.95636C35.4607 9.92727 37.4196 11.2449 39.0857 12.9092C40.7517 14.5735 42.0705 16.5307 43.0421 18.7809C44.014 21.0307 44.5 23.4348 44.5 25.9933C44.5 28.5515 44.0145 30.9566 43.0436 33.2088C42.0727 35.4607 40.7551 37.4196 39.0908 39.0857C37.4265 40.7517 35.4693 42.0705 33.2191 43.0421C30.9693 44.014 28.5652 44.5 26.0067 44.5ZM26 42.4444C30.5907 42.4444 34.4792 40.8514 37.6653 37.6653C40.8514 34.4792 42.4444 30.5907 42.4444 26C42.4444 21.4093 40.8514 17.5208 37.6653 14.3347C34.4792 11.1486 30.5907 9.55556 26 9.55556C21.4093 9.55556 17.5208 11.1486 14.3347 14.3347C11.1486 17.5208 9.55556 21.4093 9.55556 26C9.55556 30.5907 11.1486 34.4792 14.3347 37.6653C17.5208 40.8514 21.4093 42.4444 26 42.4444Z" fill="white"/>
</g>
</svg>
