<svg width="132" height="52" viewBox="0 0 132 52" fill="none" xmlns="http://www.w3.org/2000/svg">
<g clip-path="url(#clip0_2472_2667)">
<path d="M41.1436 35.1286L42.7341 31.4112C44.4755 32.7008 46.7469 33.3834 49.0188 33.3834C50.6847 33.3834 51.7447 32.7388 51.7447 31.7527C51.7067 29.0214 41.7116 31.1457 41.6356 24.2788C41.5975 20.7889 44.7024 18.0956 49.0948 18.0956C51.7067 18.0956 54.3196 18.7407 56.1745 20.2204L54.6883 24.0171C52.9816 22.9197 50.8737 22.1546 48.8673 22.1546C47.5044 22.1546 46.5954 22.7991 46.5954 23.6343C46.6334 26.3276 56.705 24.8479 56.8185 31.4112C56.8185 34.9771 53.7891 37.4809 49.4727 37.4809C46.2929 37.4809 43.3781 36.7223 41.1436 35.1286ZM104.473 30.0651C104.072 30.7784 103.488 31.3721 102.781 31.7853C102.075 32.1984 101.271 32.4162 100.452 32.4163C97.9012 32.4163 95.8334 30.3442 95.8334 27.7883C95.8334 25.2323 97.9012 23.1602 100.452 23.1602C101.271 23.1603 102.075 23.3781 102.781 23.7913C103.488 24.2044 104.072 24.7981 104.473 25.5114L108.895 23.0571C107.239 20.0971 104.079 18.0956 100.452 18.0956C95.1096 18.0956 90.7786 22.4348 90.7786 27.7883C90.7786 33.1412 95.1096 37.4809 100.452 37.4809C104.079 37.4809 107.239 35.4794 108.895 32.5195L104.473 30.0651ZM59.6877 37.1013H65.2155V10.0271H59.6883L59.6877 37.1013ZM111.686 10.0271V37.1013H117.214V28.9899L123.764 37.1013H130.83L122.5 27.4652L130.224 18.4736H123.461L117.214 25.9491V10.0271H111.686ZM82.2458 18.4746V20.6754C81.3373 19.1577 79.1034 18.0956 76.756 18.0956C71.9097 18.0956 68.0859 22.3826 68.0859 27.7693C68.0859 33.1559 71.9097 37.4809 76.756 37.4809C79.1034 37.4809 81.3373 36.4188 82.2458 34.9011V37.1013H87.7736V18.4746H82.2458ZM82.2458 30.1025C81.4508 31.4302 79.7849 32.4157 77.93 32.4157C75.3784 32.4157 73.3106 30.3442 73.3106 27.7883C73.3106 25.2323 75.3784 23.1602 77.93 23.1602C79.7849 23.1602 81.4508 24.1843 82.2458 25.5494V30.1025Z" fill="#161616"/>
<path d="M11.9513 9.42896C10.1599 9.42896 8.70789 10.8842 8.70789 12.6788C8.70746 13.1052 8.79101 13.5275 8.95378 13.9215C9.11654 14.3156 9.35533 14.6737 9.6565 14.9755C9.95767 15.2773 10.3153 15.5168 10.7091 15.6803C11.1028 15.8439 11.5249 15.9283 11.9513 15.9287H15.1952V12.6788C15.1959 11.8177 14.8545 10.9916 14.2462 10.3821C13.6379 9.77268 12.8124 9.42982 11.9513 9.42896ZM11.9513 18.0953H3.30174C1.51036 18.0953 0.05837 19.5506 0.05837 21.3457C0.05837 23.1404 1.51036 24.5956 3.30174 24.5956H11.9518C13.7426 24.5956 15.1952 23.1404 15.1952 21.3457C15.1952 19.5506 13.7426 18.0953 11.9513 18.0953Z" fill="#161616"/>
<path d="M32.4943 21.3457C32.4943 19.5506 31.0418 18.0953 29.2504 18.0953C27.459 18.0953 26.007 19.5506 26.007 21.3457V24.5956H29.2504C30.1115 24.5948 30.937 24.2519 31.5454 23.6424C32.1537 23.033 32.495 22.2068 32.4943 21.3457ZM23.8448 21.3457V12.6788C23.8455 11.8177 23.5042 10.9916 22.8958 10.3821C22.2875 9.77268 21.462 9.42982 20.6009 9.42896C18.8095 9.42896 17.3575 10.8842 17.3575 12.6788V21.3452C17.3575 23.1409 18.8095 24.5962 20.6009 24.5962C21.462 24.5953 22.2875 24.2524 22.8958 23.643C23.5042 23.0335 23.8455 22.2068 23.8448 21.3457Z" fill="#161616"/>
<path d="M20.601 41.9289C21.4621 41.9281 22.2876 41.5852 22.8959 40.9758C23.5042 40.3663 23.8456 39.5402 23.8449 38.6791C23.8456 37.818 23.5042 36.9918 22.8959 36.3824C22.2876 35.7729 21.4621 35.43 20.601 35.4292H17.3576V38.6791C17.3576 40.4737 18.8096 41.9289 20.601 41.9289ZM20.601 33.2626H29.251C31.0418 33.2626 32.4944 31.8073 32.4944 30.0122C32.4951 29.1511 32.1538 28.3249 31.5454 27.7155C30.9371 27.106 30.1116 26.7632 29.2505 26.7623H20.601C18.8096 26.7623 17.3576 28.2175 17.3576 30.0122C17.3572 30.4385 17.4407 30.8608 17.6035 31.2548C17.7662 31.6489 18.005 32.0071 18.3062 32.3088C18.6074 32.6106 18.965 32.8501 19.3588 33.0137C19.7525 33.1772 20.1746 33.2622 20.601 33.2626Z" fill="#161616"/>
<path d="M0.0581071 30.0122C0.057679 30.4385 0.141232 30.8608 0.303994 31.2548C0.466757 31.6489 0.705543 32.0071 1.00672 32.3088C1.30789 32.6106 1.66556 32.8501 2.05929 33.0137C2.45303 33.1772 2.87512 33.2616 3.30147 33.2621C4.16258 33.2612 4.98809 32.9183 5.59642 32.3089C6.20476 31.6994 6.5461 30.8733 6.54538 30.0122V26.7623H3.30147C1.5101 26.7623 0.0581071 28.2175 0.0581071 30.0122ZM8.70763 30.0122V38.6785C8.70763 40.4737 10.1596 41.9289 11.951 41.9289C12.8121 41.9281 13.6376 41.5852 14.2459 40.9758C14.8543 40.3663 15.1956 39.5402 15.1949 38.6791V30.0122C15.1953 29.5858 15.1118 29.1635 14.949 28.7694C14.7862 28.3753 14.5473 28.0171 14.2461 27.7153C13.9449 27.4135 13.5871 27.174 13.1933 27.0105C12.7995 26.847 12.3774 26.7626 11.951 26.7623C10.1596 26.7623 8.70763 28.2175 8.70763 30.0122Z" fill="#161616"/>
</g>
<defs>
<clipPath id="clip0_2472_2667">
<rect width="131.083" height="52" fill="white" transform="translate(0.0581055)"/>
</clipPath>
</defs>
</svg>
