<svg width="147" height="52" viewBox="0 0 147 52" fill="none" xmlns="http://www.w3.org/2000/svg">
<g clip-path="url(#clip0_2472_2673)">
<path d="M29.7254 18.092C24.447 18.092 20.3226 22.1058 20.3226 27.4791C20.3226 32.8524 24.3427 36.8319 29.7254 36.8319C35.108 36.8319 39.198 32.7838 39.198 27.4448C39.198 22.1401 35.1779 18.092 29.7254 18.092ZM29.761 32.9595C26.7551 32.9595 24.5524 30.621 24.5524 27.4804C24.5524 24.3043 26.7195 21.9671 29.7254 21.9671C32.7668 21.9671 34.9682 24.3399 34.9682 27.4804C34.9682 30.621 32.7668 32.9595 29.761 32.9595ZM40.3508 22.1758H42.9727V36.4844H47.1669V18.4408H40.3508V22.1758ZM9.76706 21.9657C11.9697 21.9657 13.7173 23.3266 14.3807 25.3506H18.8203C18.0158 21.0237 14.4507 18.092 9.80267 18.092C4.52424 18.092 0.399902 22.1058 0.399902 27.4804C0.399902 32.8551 4.42005 36.8333 9.80267 36.8333C14.3464 36.8333 17.9815 33.9015 18.786 29.5389H14.3807C13.7516 31.563 12.004 32.9595 9.80137 32.9595C6.75986 32.9595 4.62843 30.621 4.62843 27.4804C4.62977 24.3043 6.72689 21.9657 9.76706 21.9657ZM120.044 25.7351L116.968 25.2819C115.501 25.0732 114.452 24.5844 114.452 23.4323C114.452 22.1758 115.816 21.5482 117.667 21.5482C119.695 21.5482 120.989 22.4202 121.268 23.8511H125.323C124.868 20.2217 122.071 18.0933 117.773 18.0933C113.333 18.0933 110.397 20.3618 110.397 23.5723C110.397 26.6428 112.32 28.4238 116.199 28.9813L119.275 29.4345C120.779 29.6432 121.618 30.2378 121.618 31.3542C121.618 32.7851 120.15 33.3783 118.123 33.3783C115.64 33.3783 114.242 32.3662 114.032 30.831H109.908C110.293 34.356 113.054 36.8333 118.087 36.8333C122.666 36.8333 125.706 34.7392 125.706 31.1441C125.706 27.9336 123.505 26.2583 120.044 25.7351ZM45.0698 11.0077C43.5319 11.0077 42.3781 12.1241 42.3781 13.6593C42.3781 15.1945 43.5307 16.311 45.0698 16.311C46.6077 16.311 47.7619 15.1945 47.7619 13.6593C47.7619 12.1241 46.6077 11.0077 45.0698 11.0077ZM106.623 24.6187C106.623 20.7106 104.246 18.0933 99.2127 18.0933C94.4592 18.0933 91.8028 20.5018 91.278 24.2012H95.4378C95.6474 22.7703 96.766 21.5839 99.1429 21.5839C101.276 21.5839 102.324 22.5259 102.324 23.678C102.324 25.1789 100.401 25.562 98.0244 25.8065C94.8088 26.1553 90.8242 27.2717 90.8242 31.4599C90.8242 34.7061 93.2364 36.7989 97.0815 36.7989C100.087 36.7989 101.975 35.5424 102.919 33.5527C103.059 35.3324 104.387 36.4844 106.24 36.4844H108.687V32.7507H106.624V24.6187H106.623ZM102.498 29.1557C102.498 31.5643 100.401 33.3439 97.8488 33.3439C96.2757 33.3439 94.9475 32.6807 94.9475 31.2855C94.9475 29.5058 97.0799 29.017 99.0375 28.8083C100.925 28.6339 101.973 28.215 102.498 27.4117V29.1557ZM80.2331 18.092C77.8906 18.092 75.9334 19.0696 74.5354 20.7093V10.8333H70.3412V36.4844H74.4653V34.1116C75.8632 35.8212 77.8565 36.8333 80.2331 36.8333C85.266 36.8333 89.0766 32.8551 89.0766 27.4804C89.0766 22.1058 85.1963 18.092 80.2331 18.092ZM79.6041 32.9595C76.5981 32.9595 74.3955 30.621 74.3955 27.4804C74.3955 24.3399 76.6326 21.9671 79.6381 21.9671C82.6798 21.9671 84.811 24.3056 84.811 27.4804C84.811 30.621 82.6096 32.9595 79.6041 32.9595ZM60.309 18.092C57.5828 18.092 55.7996 19.2084 54.7512 20.7793V18.4408H50.591V36.4831H54.7853V26.6772C54.7853 23.9198 56.5328 21.9657 59.1195 21.9657C61.5317 21.9657 63.0339 23.6754 63.0339 26.154V36.4844H67.2281V25.8408C67.2298 21.3025 64.8885 18.092 60.309 18.092ZM145.7 26.8872C145.7 21.7226 141.925 18.0933 136.857 18.0933C131.474 18.0933 127.524 22.1415 127.524 27.4804C127.524 33.0995 131.754 36.8333 136.927 36.8333C141.296 36.8333 144.722 34.2503 145.595 30.5866H141.225C140.596 32.1918 139.058 33.0995 136.995 33.0995C134.303 33.0995 132.276 31.4242 131.822 28.4925H145.699V26.8872H145.7ZM132.068 25.4907C132.733 22.9778 134.62 21.757 136.787 21.757C139.164 21.757 140.981 23.1178 141.401 25.4907H132.068Z" fill="#161616"/>
</g>
<defs>
<clipPath id="clip0_2472_2673">
<rect width="146" height="52" fill="white" transform="translate(0.399902)"/>
</clipPath>
</defs>
</svg>
