<svg width="144" height="50" viewBox="0 0 144 50" fill="none" xmlns="http://www.w3.org/2000/svg">
<path d="M123.835 7.3298H125.259V2.17737H123.613C117.029 2.17737 113.56 5.86409 113.56 11.7718H110.001V17.369H113.56V35.1372H120.144V17.369H125.214V11.7718H120.144V11.1057C120.144 8.70695 121.478 7.3298 123.836 7.3298H123.835Z" fill="white"/>
<path d="M101.189 35.1372H107.773V11.7719H101.189V35.1372Z" fill="white"/>
<path d="M104.526 8.35146C106.928 8.35146 108.797 6.61879 108.797 4.17573C108.797 1.77695 106.928 0 104.526 0C102.124 0 100.211 1.77695 100.211 4.17573C100.211 6.61879 102.124 8.35146 104.526 8.35146Z" fill="white"/>
<path d="M89.7746 11.1944C86.9725 11.1944 84.6589 12.1717 83.058 13.5932V2.71008H76.4744V35.1366H83.058V21.3071C83.1023 18.9155 85.1486 17.0578 87.7733 17.0578C90.4424 17.0578 92.4 18.7384 92.4 21.7069V35.1366H98.9386V20.4262C98.9386 14.9703 95.3801 11.1944 89.7753 11.1944H89.7746Z" fill="white"/>
<path d="M64.3871 35.759C70.3923 35.759 74.2625 32.8719 74.2625 28.1629C74.2625 19.5451 61.718 21.8111 61.718 18.0352C61.718 16.8358 62.6968 16.1254 64.4757 16.1254C66.2103 16.1254 67.4559 16.925 68.0343 18.5242L73.5947 16.3917C72.6159 13.149 69.2354 11.2393 64.5644 11.2393C58.8703 11.2393 55.2231 13.9486 55.2231 18.3907C55.2231 26.4309 67.7226 24.4762 67.7226 28.5627C67.7226 29.8956 66.5657 30.6952 64.6088 30.6952C61.9841 30.6952 60.2938 29.4958 59.6711 27.4525L54.1106 29.5843C55.4454 33.6266 59.182 35.759 64.3871 35.759Z" fill="white"/>
<path d="M140.13 35.1372H144V29.4072H141.509C139.196 29.4072 137.906 28.0821 137.906 25.6019V17.3696H143.822V11.7725H138.128V5.59778H131.722V9.24023V11.7718H129.321H127.319V17.369H131.322V26.4009C131.322 31.6718 134.303 35.1365 140.13 35.1365V35.1372Z" fill="white"/>
<path fill-rule="evenodd" clip-rule="evenodd" d="M41.118 2.66382C37.6586 2.66382 34.8285 5.48974 34.8285 8.94402V15.2242V21.5044C34.8285 18.0501 31.9984 15.2242 28.539 15.2242H21.1194C17.66 15.2242 14.8298 12.3983 14.8298 8.94402C14.8298 5.48974 17.66 2.66382 21.1194 2.66382H41.118Z" fill="url(#paint0_linear_2342_20940)"/>
<path d="M47.4077 10.8076C47.4077 6.3099 44.5917 2.66382 41.1181 2.66382C37.6445 2.66382 34.8286 6.3099 34.8286 10.8076V27.0495C34.8286 31.5471 37.6445 35.1932 41.1181 35.1932C44.5917 35.1932 47.4077 31.5471 47.4077 27.0495V10.8076Z" fill="#9935BA"/>
<path fill-rule="evenodd" clip-rule="evenodd" d="M32.5775 23.752C32.5775 27.2063 29.7474 30.0322 26.288 30.0322H19.9985H13.709C17.1684 30.0322 19.9985 32.8582 19.9985 36.3124V43.7204C19.9985 47.1747 22.8286 50.0006 26.288 50.0006C29.7474 50.0006 32.5775 47.1747 32.5775 43.7204V23.752ZM32.3787 22.1874C32.3526 22.0871 32.3245 21.9881 32.2932 21.8898C32.3239 21.9881 32.3519 22.0871 32.3787 22.1874ZM32.2932 21.8898C32.2626 21.7915 32.2293 21.6945 32.1941 21.5987C32.2293 21.6951 32.2626 21.7921 32.2932 21.8898ZM32.0806 21.3135C32.0409 21.2198 31.9985 21.1273 31.9541 21.0355C31.9985 21.1267 32.0409 21.2198 32.0806 21.3135ZM31.499 20.247C31.4422 20.1636 31.3836 20.0816 31.3229 20.0009C31.3836 20.0816 31.4416 20.1636 31.499 20.247Z" fill="url(#paint1_linear_2342_20940)"/>
<path d="M24.4217 17.4719C28.926 17.4719 32.5774 20.2836 32.5774 23.752C32.5774 27.2204 28.926 30.0321 24.4217 30.0321L8.15639 30.0321C3.65211 30.0321 0.000671387 27.2204 0.000671387 23.752C0.000671387 20.2836 3.65211 17.4719 8.15639 17.4719L24.4217 17.4719Z" fill="#006F69"/>
<path d="M87.0135 43.3786H54.1111V43.9144H87.0135L84.5101 45.4505V46.0691C85.7348 45.3176 86.9601 44.5656 88.1847 43.8142C88.2147 43.7985 88.2408 43.7732 88.2584 43.7406C88.3073 43.6514 88.2786 43.5368 88.1945 43.4847C87.6082 43.1253 87.0214 42.7652 86.4351 42.4058L85.7915 42.0112L84.5095 41.2246V41.8432L87.0129 43.3792L87.0135 43.3786Z" fill="white"/>
<path d="M92.426 40.9662H93.3175V41.7228C93.5326 41.4669 93.727 41.2728 93.9011 41.1504C94.1984 40.946 94.5362 40.8438 94.9151 40.8438C95.3351 40.8438 95.6833 40.9564 95.9396 41.1609C96.0934 41.2833 96.2265 41.4571 96.3393 41.6928C96.544 41.4063 96.7801 41.1915 97.0462 41.0586C97.3227 40.9154 97.62 40.8438 97.9578 40.8438C98.6751 40.8438 99.1662 41.1094 99.4329 41.631C99.5659 41.9071 99.6376 42.2854 99.6376 42.7561V46.3152H98.7058V42.6031C98.7058 42.245 98.6138 41.9995 98.4397 41.8667C98.2552 41.7338 98.04 41.6622 97.7843 41.6622C97.4257 41.6622 97.129 41.7846 96.8727 42.0204C96.6164 42.2554 96.4834 42.6546 96.4834 43.2067V46.3159H95.5718V42.8284C95.5718 42.4599 95.5307 42.1942 95.4387 42.0308C95.3057 41.7853 95.0494 41.6525 94.681 41.6525C94.3328 41.6525 94.0256 41.7853 93.7491 42.0516C93.4727 42.3173 93.3292 42.788 93.3292 43.4834V46.3165H92.428V40.9681L92.426 40.9662Z" fill="white"/>
<path d="M100.958 40.9864H101.88V46.3146H100.958V40.9864ZM100.958 38.9822H101.88V39.9947H100.958V38.9822Z" fill="white"/>
<path d="M103.807 43.7067C103.807 44.2791 103.929 44.7499 104.176 45.1386C104.421 45.5273 104.81 45.7213 105.343 45.7213C105.763 45.7213 106.101 45.5371 106.367 45.179C106.644 44.8208 106.777 44.3097 106.777 43.6449C106.777 42.9697 106.633 42.4689 106.357 42.1414C106.08 41.8139 105.742 41.6505 105.332 41.6505C104.882 41.6505 104.513 41.8243 104.226 42.172C103.949 42.5197 103.806 43.0309 103.806 43.7061L103.807 43.7067ZM105.158 40.8736C105.568 40.8736 105.916 40.955 106.193 41.1289C106.357 41.2311 106.53 41.405 106.736 41.6505V38.9502H107.606V46.3139H106.797V45.5677C106.582 45.8952 106.336 46.14 106.05 46.2833C105.763 46.4265 105.435 46.5086 105.066 46.5086C104.462 46.5086 103.95 46.2527 103.51 45.752C103.079 45.2506 102.854 44.5864 102.854 43.7575C102.854 42.9697 103.059 42.2951 103.459 41.7325C103.859 41.1601 104.422 40.8736 105.159 40.8736H105.158Z" fill="white"/>
<path d="M109.503 43.7067C109.503 44.2791 109.626 44.7499 109.872 45.1386C110.118 45.5273 110.507 45.7213 111.04 45.7213C111.46 45.7213 111.797 45.5371 112.064 45.179C112.341 44.8208 112.474 44.3097 112.474 43.6449C112.474 42.9697 112.33 42.4689 112.054 42.1414C111.777 41.8139 111.439 41.6505 111.029 41.6505C110.579 41.6505 110.21 41.8243 109.923 42.172C109.646 42.5197 109.503 43.0309 109.503 43.7061L109.503 43.7067ZM110.855 40.8736C111.265 40.8736 111.613 40.955 111.889 41.1289C112.054 41.2311 112.227 41.405 112.433 41.6505V38.9502H113.303V46.3139H112.494V45.5677C112.279 45.8952 112.033 46.14 111.747 46.2833C111.46 46.4265 111.132 46.5086 110.763 46.5086C110.159 46.5086 109.647 46.2527 109.207 45.752C108.776 45.2506 108.551 44.5864 108.551 43.7575C108.551 42.9697 108.756 42.2951 109.156 41.7325C109.556 41.1601 110.119 40.8736 110.856 40.8736H110.855Z" fill="white"/>
<path d="M114.657 38.9822H115.558V46.3146H114.657V38.9822Z" fill="white"/>
<path d="M119.134 40.8431C119.513 40.8431 119.882 40.9349 120.24 41.1087C120.599 41.293 120.865 41.5176 121.06 41.8041C121.234 42.0704 121.357 42.3869 121.418 42.745C121.469 42.9905 121.5 43.389 121.5 43.9314H117.567C117.588 44.4731 117.721 44.9029 117.957 45.2304C118.192 45.5579 118.571 45.7214 119.073 45.7214C119.544 45.7214 119.913 45.5677 120.2 45.261C120.354 45.0767 120.466 44.8723 120.538 44.6372H121.419C121.398 44.8313 121.327 45.0566 121.193 45.2916C121.06 45.5371 120.906 45.7311 120.742 45.8848C120.476 46.1511 120.138 46.3347 119.728 46.4272C119.513 46.478 119.267 46.5086 119.001 46.5086C118.325 46.5086 117.762 46.2631 117.301 45.7826C116.84 45.2916 116.605 44.617 116.605 43.7471C116.605 42.8883 116.84 42.1824 117.312 41.6505C117.773 41.1185 118.387 40.8424 119.135 40.8424L119.134 40.8431ZM120.568 43.2158C120.538 42.8271 120.446 42.51 120.312 42.2749C120.066 41.8452 119.657 41.6303 119.083 41.6303C118.663 41.6303 118.325 41.7839 118.038 42.0802C117.762 42.3771 117.608 42.7554 117.597 43.2151H120.568L120.568 43.2158Z" fill="white"/>
<path d="M127.676 40.8431C128.055 40.8431 128.424 40.9349 128.782 41.1087C129.141 41.293 129.407 41.5176 129.602 41.8041C129.776 42.0704 129.898 42.3869 129.96 42.745C130.011 42.9905 130.042 43.389 130.042 43.9314H126.109C126.13 44.4731 126.263 44.9029 126.498 45.2304C126.734 45.5579 127.113 45.7214 127.615 45.7214C128.086 45.7214 128.455 45.5677 128.742 45.261C128.895 45.0767 129.008 44.8723 129.079 44.6372H129.96C129.94 44.8313 129.868 45.0566 129.735 45.2916C129.602 45.5371 129.448 45.7311 129.284 45.8848C129.018 46.1511 128.68 46.3347 128.27 46.4272C128.055 46.478 127.809 46.5086 127.543 46.5086C126.867 46.5086 126.303 46.2631 125.843 45.7826C125.382 45.2916 125.146 44.617 125.146 43.7471C125.146 42.8883 125.382 42.1824 125.853 41.6505C126.314 41.1185 126.929 40.8424 127.677 40.8424L127.676 40.8431ZM129.11 43.2158C129.079 42.8271 128.987 42.51 128.854 42.2749C128.608 41.8452 128.198 41.6303 127.624 41.6303C127.205 41.6303 126.867 41.7839 126.58 42.0802C126.303 42.3771 126.149 42.7554 126.139 43.2151H129.109L129.11 43.2158Z" fill="white"/>
<path d="M131.836 44.8931C131.836 45.1484 131.928 45.3535 132.123 45.5065C132.307 45.6602 132.532 45.7318 132.799 45.7318C133.116 45.7318 133.414 45.6602 133.711 45.5065C134.213 45.2714 134.468 44.8723 134.468 44.3201V43.5941C134.355 43.6657 134.212 43.7165 134.038 43.768C133.864 43.8194 133.7 43.85 133.526 43.8702L132.983 43.9418C132.655 43.9828 132.41 44.044 132.246 44.1463C131.969 44.2999 131.836 44.5454 131.836 44.8931H131.836ZM134.018 43.0725C134.222 43.0524 134.355 42.9599 134.427 42.8166C134.468 42.7346 134.489 42.6226 134.489 42.4689C134.489 42.1623 134.376 41.937 134.161 41.8041C133.945 41.6609 133.628 41.5997 133.229 41.5997C132.758 41.5997 132.419 41.7221 132.225 41.978C132.112 42.1108 132.041 42.3257 132.01 42.6018H131.17C131.19 41.937 131.396 41.4766 131.815 41.2214C132.224 40.9655 132.696 40.8326 133.249 40.8326C133.874 40.8326 134.385 40.9551 134.775 41.2005C135.175 41.4356 135.369 41.8041 135.369 42.3153V45.3938C135.369 45.4857 135.379 45.5677 135.42 45.6191C135.461 45.6803 135.543 45.7005 135.666 45.7005C135.707 45.7005 135.748 45.7005 135.799 45.7005C135.851 45.6908 135.902 45.6803 135.963 45.6699V46.3347C135.819 46.3758 135.717 46.4064 135.635 46.4168C135.563 46.4272 135.461 46.4272 135.338 46.4272C135.031 46.4272 134.805 46.3145 134.662 46.0997C134.59 45.987 134.539 45.8132 134.508 45.6087C134.324 45.8438 134.057 46.0489 133.719 46.2325C133.371 46.4064 132.992 46.4988 132.582 46.4988C132.091 46.4988 131.681 46.3451 131.364 46.0385C131.046 45.7422 130.893 45.3632 130.893 44.9133C130.893 44.4119 131.047 44.0336 131.354 43.7575C131.671 43.4815 132.071 43.3174 132.583 43.2562L134.017 43.0719L134.018 43.0725Z" fill="white"/>
<path d="M137.379 44.6372C137.399 44.9335 137.481 45.1692 137.604 45.3222C137.83 45.6191 138.219 45.7624 138.783 45.7624C139.111 45.7624 139.407 45.6908 139.664 45.5475C139.919 45.3938 140.042 45.179 140.042 44.8723C140.042 44.6372 139.94 44.4634 139.735 44.3507C139.602 44.2687 139.346 44.1873 138.967 44.0948L138.25 43.9112C137.8 43.7986 137.461 43.6761 137.247 43.5329C136.858 43.2874 136.663 42.9501 136.663 42.5204C136.663 42.019 136.848 41.6101 137.206 41.293C137.575 40.9863 138.066 40.8229 138.681 40.8229C139.49 40.8229 140.074 41.0579 140.432 41.5385C140.648 41.8347 140.76 42.1623 140.75 42.5002H139.9C139.89 42.3062 139.818 42.1219 139.684 41.948C139.48 41.713 139.121 41.6003 138.609 41.6003C138.271 41.6003 138.015 41.6615 137.841 41.7944C137.667 41.9168 137.575 42.0906 137.575 42.3055C137.575 42.5406 137.688 42.7248 137.923 42.8681C138.056 42.9501 138.251 43.0218 138.517 43.083L139.111 43.2262C139.756 43.3896 140.187 43.5329 140.412 43.6866C140.76 43.9119 140.935 44.2693 140.935 44.7707C140.935 45.2415 140.75 45.6504 140.392 45.9981C140.033 46.3458 139.48 46.5197 138.743 46.5197C137.944 46.5197 137.381 46.3354 137.043 45.9773C136.715 45.6198 136.541 45.1699 136.51 44.6379H137.381L137.379 44.6372Z" fill="white"/>
<path d="M142.142 39.4724H143.053V40.9655H143.904V41.7019H143.053V45.1894C143.053 45.373 143.115 45.5065 143.238 45.5677C143.31 45.5983 143.432 45.6191 143.596 45.6191C143.638 45.6191 143.679 45.6191 143.73 45.6191C143.781 45.6191 143.842 45.6087 143.904 45.6087V46.3145C143.801 46.3451 143.699 46.366 143.586 46.3757C143.473 46.3959 143.351 46.3959 143.227 46.3959C142.798 46.3959 142.521 46.2937 142.367 46.0788C142.213 45.8639 142.142 45.5879 142.142 45.2402V41.7019H141.415V40.9655H142.142V39.4724Z" fill="white"/>
<defs>
<linearGradient id="paint0_linear_2342_20940" x1="14.8305" y1="8.94402" x2="34.8285" y2="8.94336" gradientUnits="userSpaceOnUse">
<stop stop-color="#9935BA"/>
<stop offset="1" stop-color="#74218F"/>
</linearGradient>
<linearGradient id="paint1_linear_2342_20940" x1="26.288" y1="50.0006" x2="26.288" y2="30.0322" gradientUnits="userSpaceOnUse">
<stop stop-color="#006F69"/>
<stop offset="1" stop-color="#052D2D"/>
</linearGradient>
</defs>
</svg>
