<svg width="127" height="52" viewBox="0 0 127 52" fill="none" xmlns="http://www.w3.org/2000/svg">
<g clip-path="url(#clip0_2472_1290)">
<path d="M41.3169 23.1915C41.3169 20.9581 39.0835 18.5757 35.3611 18.5757C31.1921 18.5757 26.4275 21.7025 25.683 27.9561C24.9385 34.2096 28.8098 37.0386 32.8299 37.0386C36.85 37.0386 38.7857 35.5497 40.8702 33.4652C39.0835 31.2318 36.7011 32.274 36.2545 32.4229C35.8078 32.7207 35.0633 33.0185 33.8722 33.0185C32.3832 33.0185 30.7454 32.274 30.7454 29.445C40.5724 28.4028 41.3169 25.4249 41.3169 23.1915ZM36.5522 23.4893C36.5522 24.2337 36.2545 25.4249 31.341 26.0205C32.3832 22.2981 34.3188 22.0003 35.2122 22.0003C36.1056 22.1492 36.5522 22.7448 36.5522 23.4893ZM20.025 24.0848C20.025 24.0848 17.9405 30.6362 17.7916 31.2318C17.7916 30.6362 16.1538 18.8735 16.1538 18.8735C12.5803 18.8735 10.6447 21.4047 9.75131 24.0848C9.75131 24.0848 7.22011 30.6362 7.07121 31.2318C6.92232 30.7851 6.62453 24.2337 6.62453 24.2337C6.32674 20.9581 3.34886 18.8735 0.966553 18.8735L3.94444 36.7408C7.66679 36.7408 9.75131 34.2096 10.7936 31.5295C10.7936 31.5295 13.027 25.7227 13.1759 25.4249C13.1759 25.7227 14.8137 36.7408 14.8137 36.7408C18.5361 36.7408 20.6206 34.3585 21.6628 31.8273L26.8741 18.8735C23.0029 18.8735 21.0673 21.4047 20.025 24.0848ZM55.164 18.4269C52.9306 18.4269 51.1439 19.618 49.6549 21.5536L50.8461 10.8333C47.7193 10.8333 45.337 13.5133 44.7414 17.3846L42.3591 36.5919C44.1459 36.5919 45.9326 36.1453 46.9748 34.8052C47.8682 35.9964 49.2083 36.8897 51.1439 36.8897C56.3552 36.8897 59.9286 30.934 59.9286 25.276C60.0775 20.0647 57.5463 18.4269 55.164 18.4269ZM54.5684 27.6583C53.9729 30.7851 52.335 32.8696 50.5483 32.8696C48.9105 32.8696 48.166 32.1251 48.166 32.1251C48.4638 29.445 48.7616 27.6583 49.3571 26.1693C49.9527 24.6804 51.4417 22.447 52.9306 22.447C54.4196 22.5959 55.164 24.5315 54.5684 27.6583ZM73.0313 18.8735H69.4579V18.7246C69.7556 16.3423 70.2023 15.1512 72.1379 15.0023C73.3291 14.8534 73.9247 14.2578 74.0736 13.5133C74.2225 12.9178 74.5203 10.9821 74.5203 10.9821C67.2244 10.9821 64.991 14.1089 64.3955 18.8735V19.0224H64.2466C63.0554 19.0224 61.7154 20.3625 61.5665 22.0003L61.4176 22.5959H63.7999L61.7154 39.272L61.1198 42.2499C61.2687 42.2499 61.2687 42.2499 61.4176 42.2499C64.8421 42.101 66.9267 39.4209 67.5222 35.5497L69.1601 22.447H70.3512C71.3935 22.447 72.7335 21.4047 73.0313 19.4691V18.8735ZM91.792 18.5757C87.6229 18.5757 83.7517 21.7025 82.5605 26.4671C81.3694 31.2318 83.1561 37.0386 89.2608 37.0386C95.3654 37.0386 98.9389 31.0829 98.9389 26.1693C98.79 21.2558 95.5143 18.5757 91.792 18.5757ZM93.4298 27.5094C93.2809 29.7428 92.2387 33.0185 89.5586 33.0185C86.8785 33.0185 87.3252 29.1472 87.474 27.3605C87.7718 25.4249 88.8141 22.5959 91.1964 22.5959C93.4298 22.5959 93.7276 25.1271 93.4298 27.5094ZM119.486 24.0848C119.486 24.0848 117.402 30.6362 117.253 31.2318C117.253 30.6362 115.615 18.8735 115.615 18.8735C112.042 18.8735 110.106 21.4047 109.213 24.0848C109.213 24.0848 106.681 30.6362 106.533 31.2318C106.533 30.7851 106.086 24.2337 106.086 24.2337C105.937 20.9581 102.81 19.0224 100.428 19.0224L103.406 36.8897C107.128 36.8897 109.213 34.3585 110.255 31.6784C110.255 31.6784 112.488 25.8716 112.637 25.5738C112.637 25.8716 114.275 36.8897 114.275 36.8897C117.997 36.8897 120.082 34.5074 121.124 31.9762L126.038 18.8735C122.315 18.8735 120.38 21.4047 119.486 24.0848ZM76.4559 10.9821L73.478 35.4008L72.8824 38.3787C73.0313 38.3787 73.0313 38.3787 73.1802 38.3787C76.4559 38.3787 78.8382 35.4008 79.136 31.8273L80.9227 17.8313C81.3694 13.6622 78.6893 10.9821 76.4559 10.9821Z" fill="#161616"/>
</g>
<defs>
<clipPath id="clip0_2472_1290">
<rect width="125.667" height="52" fill="white" transform="translate(0.966553)"/>
</clipPath>
</defs>
</svg>
