<svg xmlns="http://www.w3.org/2000/svg" width="34" height="24" viewBox="0 0 34 24" fill="none">
    <path d="M3.91947 23.5L8.3278 15.8333C6.21947 15.8333 4.41461 15.0826 2.91322 13.5813C1.41183 12.0799 0.661133 10.275 0.661133 8.16667C0.661133 6.05833 1.41183 4.25347 2.91322 2.75208C4.41461 1.25069 6.21947 0.5 8.3278 0.5C10.4361 0.5 12.241 1.25069 13.7424 2.75208C15.2438 4.25347 15.9945 6.05833 15.9945 8.16667C15.9945 8.90139 15.9066 9.58021 15.7309 10.2031C15.5552 10.826 15.2917 11.425 14.9403 12L8.3278 23.5H3.91947ZM21.1695 23.5L25.5778 15.8333C23.4695 15.8333 21.6646 15.0826 20.1632 13.5813C18.6618 12.0799 17.9111 10.275 17.9111 8.16667C17.9111 6.05833 18.6618 4.25347 20.1632 2.75208C21.6646 1.25069 23.4695 0.5 25.5778 0.5C27.6861 0.5 29.491 1.25069 30.9924 2.75208C32.4938 4.25347 33.2445 6.05833 33.2445 8.16667C33.2445 8.90139 33.1566 9.58021 32.9809 10.2031C32.8052 10.826 32.5417 11.425 32.1903 12L25.5778 23.5H21.1695Z" fill="white"/>
</svg>