<svg width="53" height="52" viewBox="0 0 53 52" fill="none" xmlns="http://www.w3.org/2000/svg">
<mask id="mask0_2450_2430" style="mask-type:alpha" maskUnits="userSpaceOnUse" x="0" y="0" width="53" height="52">
<rect x="0.333252" width="52" height="52" fill="#D9D9D9"/>
</mask>
<g mask="url(#mask0_2450_2430)">
<path d="M26.3153 23.9123C25.0207 23.9123 23.918 23.4564 23.0071 22.5446C22.0963 21.6329 21.6408 20.5291 21.6408 19.2334C21.6408 17.938 22.0963 16.8344 23.0071 15.9226C23.918 15.0106 25.0207 14.5545 26.3153 14.5545C27.6098 14.5545 28.7125 15.0106 29.6234 15.9226C30.5343 16.8344 30.9897 17.938 30.9897 19.2334C30.9897 20.5291 30.5343 21.6329 29.6234 22.5446C28.7125 23.4564 27.6098 23.9123 26.3153 23.9123ZM26.3153 22.0407C27.0847 22.0407 27.7445 21.7655 28.2949 21.2149C28.8449 20.6644 29.1199 20.0039 29.1199 19.2334C29.1199 18.4633 28.8449 17.8029 28.2949 17.2524C27.7445 16.7015 27.0847 16.4261 26.3153 16.4261C25.5458 16.4261 24.886 16.7015 24.3356 17.2524C23.7856 17.8029 23.5106 18.4633 23.5106 19.2334C23.5106 20.0039 23.7856 20.6644 24.3356 21.2149C24.886 21.7655 25.5458 22.0407 26.3153 22.0407ZM16.0315 33.7024V31.0822C16.0315 30.5469 16.1532 30.0688 16.3965 29.6477C16.6399 29.2266 16.9941 28.8805 17.459 28.6094C18.7894 27.8224 20.1976 27.2268 21.6838 26.8225C23.1703 26.4183 24.7141 26.2162 26.3153 26.2162C27.8927 26.2162 29.4305 26.4183 30.9285 26.8225C32.4268 27.2268 33.8411 27.8224 35.1715 28.6094C35.6127 28.8805 35.961 29.2326 36.2162 29.6659C36.4714 30.0989 36.599 30.571 36.599 31.0822V33.7024H16.0315ZM26.3153 28.0877C24.9176 28.0877 23.5153 28.2916 22.1083 28.6992C20.7012 29.1072 19.3204 29.6951 17.9658 30.4627V31.8664H34.6648V30.4272C33.3341 29.6592 31.9592 29.0773 30.54 28.6815C29.1212 28.2856 27.7129 28.0877 26.3153 28.0877ZM43.564 18.7945C42.5979 16.4935 41.2442 14.4773 39.5028 12.7461C37.7611 11.0149 35.7648 9.67788 33.5139 8.73493L34.2441 7C36.8424 8.14695 39.0399 9.60941 40.8364 11.3874C42.6333 13.1654 44.1322 15.3908 45.3333 18.0637L43.564 18.7945ZM9.06654 18.7945L7.33325 18.0637C8.48628 15.4148 9.96123 13.1972 11.7581 11.4108C13.5546 9.62439 15.7641 8.15412 18.3865 7L19.1166 8.73493C16.8417 9.7019 14.8395 11.051 13.1099 12.7822C11.3804 14.5133 10.0326 16.5175 9.06654 18.7945ZM18.3509 45C15.7762 43.9011 13.5666 42.4146 11.7221 40.5406C9.87755 38.6665 8.41461 36.4531 7.33325 33.9003L9.06654 33.2055C10.0326 35.4825 11.3804 37.4867 13.1099 39.2178C14.8395 40.949 16.8417 42.2981 19.1166 43.2651L18.3509 45ZM34.2081 45L33.5139 43.2651C35.7888 42.2981 37.791 40.949 39.5206 39.2178C41.2501 37.4867 42.5979 35.4825 43.564 33.2055L45.2973 33.9363C44.1514 36.5372 42.6602 38.7548 40.8238 40.5892C38.9877 42.4237 36.7824 43.8939 34.2081 45Z" fill="white"/>
</g>
</svg>
