<svg width="606" height="238" viewBox="0 0 606 238" fill="none" xmlns="http://www.w3.org/2000/svg">
<path opacity="0.5" d="M51.0498 105C59.6109 105 67.2331 107.01 73.8848 111.055C80.6601 114.982 86.0583 120.859 90.0898 128.639L90.5195 129.468L89.7217 129.953L71.1855 141.234L70.2969 141.775L69.792 140.865C67.3324 136.437 64.4348 133.171 61.1221 131.012L61.1045 131L61.0889 130.988C57.9022 128.723 54.3258 127.593 50.3301 127.593C47.4669 127.593 44.923 128.161 42.6777 129.278L42.668 129.283L42.6582 129.287C40.5322 130.289 38.8076 131.73 37.4688 133.617C36.2839 135.337 35.6739 137.397 35.6738 139.843C35.6738 142.379 36.3879 144.615 37.8125 146.583C39.3784 148.58 41.8846 150.584 45.4043 152.57C48.6122 154.217 52.6502 155.962 57.5264 157.804L59.6719 158.601L59.6729 158.602C67.5183 161.484 74.0709 164.678 79.3125 168.194L80.3076 168.863C85.2097 172.248 89.0115 176.19 91.6826 180.696H91.6816C94.5527 185.421 95.9609 191.158 95.9609 197.859C95.9609 205.437 94.0538 212.252 90.2256 218.272C86.5219 224.167 81.3404 228.762 74.7109 232.061C68.0678 235.366 60.2908 237 51.4102 237C37.9134 237 26.7012 233.488 17.8516 226.395L17.8457 226.391C9.12431 219.302 3.84727 209.882 2.01172 198.193L1.86914 197.286L2.7627 197.067L25.4375 191.517L26.4785 191.262L26.6611 192.317C27.9508 199.784 30.8569 205.267 35.2959 208.896L35.7305 209.233C40.2489 212.67 45.7567 214.408 52.3096 214.408C55.9174 214.408 59.0791 213.829 61.8135 212.697C64.6627 211.449 66.8474 209.71 68.4082 207.491L68.4141 207.483C70.0814 205.161 70.9258 202.444 70.9258 199.292C70.9258 196.397 70.0922 193.934 68.4434 191.855C66.7625 189.737 64.1357 187.728 60.4912 185.856L60.4795 185.851C56.9334 183.969 52.4191 182.016 46.9258 179.996L46.916 179.993L46.9062 179.989C38.9453 176.869 32.2235 173.557 26.7549 170.051L26.7334 170.037C21.3517 166.386 17.2763 162.16 14.5479 157.348C11.8088 152.516 10.458 146.848 10.458 140.38C10.4581 133.526 12.1215 127.428 15.4717 122.119L15.4756 122.112L15.4805 122.105C18.9426 116.815 23.6991 112.642 29.7217 109.585L29.7285 109.581C35.8886 106.516 43.0049 105 51.0498 105ZM135.748 107.865V157.823H187.917V107.865H213.132V234.672H187.917V181.132H135.748V234.672H110.533V107.865H135.748ZM258.527 107.865V234.672H233.312V107.865H258.527ZM364.451 107.865V130.637H303.803V158.361H356.532V180.953H303.803V234.672H278.588V107.865H364.451ZM470 107.865V130.637H431.308V234.672H405.732V130.637H366.861V107.865H470Z" stroke="white" stroke-width="2"/>
<path d="M528.919 91.4385C528.763 83.1063 522.086 76.3792 513.791 76.2217H492.028C483.182 76.2217 476 69.0039 476 60.0869C476 51.1697 483.182 43.9512 492.028 43.9512H543.113C552.972 43.9512 560.975 51.9954 560.976 61.9316V113.865C560.975 122.782 553.793 130 544.947 130C536.101 130 528.919 122.782 528.919 113.865V91.4385Z" stroke="white" stroke-opacity="0.5" stroke-width="2"/>
<path d="M572.942 48.4873C572.786 40.1551 566.109 33.428 557.814 33.2705H536.052C527.206 33.2705 520.024 26.0528 520.023 17.1357C520.023 8.21854 527.205 1 536.052 1H587.137C596.996 1 604.999 9.0442 604.999 18.9805V70.9141C604.999 79.8311 597.817 87.0487 588.971 87.0488C580.124 87.0488 572.942 79.8312 572.942 70.9141V48.4873Z" stroke="white" stroke-opacity="0.5" stroke-width="2"/>
</svg>
