<svg width="52" height="52" viewBox="0 0 52 52" fill="none" xmlns="http://www.w3.org/2000/svg">
<mask id="mask0_2450_5411" style="mask-type:alpha" maskUnits="userSpaceOnUse" x="0" y="0" width="52" height="52">
<rect width="52" height="52" fill="#D9D9D9"/>
</mask>
<g mask="url(#mask0_2450_5411)">
<path d="M26.041 46.6001L8 36.6001V16.6001L26.041 6.6001L44.0819 16.6001V36.6001L26.041 46.6001ZM20.0901 22.0697C20.822 21.1662 21.7049 20.4573 22.7389 19.943C23.7729 19.4286 24.8736 19.1715 26.041 19.1715C27.2083 19.1715 28.309 19.4286 29.343 19.943C30.377 20.4573 31.2599 21.1662 31.9918 22.0697L40.7268 17.2082L26.041 9.03244L11.3551 17.2082L20.0901 22.0697ZM24.9797 43.5719V34.0086C23.1512 33.6764 21.6328 32.8179 20.4244 31.433C19.2164 30.0477 18.6123 28.4367 18.6123 26.6001C18.6123 26.1293 18.6504 25.685 18.7264 25.2672C18.8028 24.8498 18.9213 24.4233 19.0819 23.9879L10.1225 18.9672V35.3309L24.9797 43.5719ZM26.041 31.9063C27.5348 31.9063 28.7927 31.3955 29.8147 30.3738C30.8363 29.3519 31.3471 28.094 31.3471 26.6001C31.3471 25.1062 30.8363 23.8483 29.8147 22.8264C28.7927 21.8047 27.5348 21.2939 26.041 21.2939C24.5471 21.2939 23.2892 21.8047 22.2672 22.8264C21.2456 23.8483 20.7348 25.1062 20.7348 26.6001C20.7348 28.094 21.2456 29.3519 22.2672 30.3738C23.2892 31.3955 24.5471 31.9063 26.041 31.9063ZM27.1022 43.5719L41.9595 35.3309V18.9672L33 23.9879C33.1606 24.4233 33.2791 24.8498 33.3555 25.2672C33.4316 25.685 33.4696 26.1293 33.4696 26.6001C33.4696 28.4367 32.8656 30.0477 31.6575 31.433C30.4492 32.8179 28.9307 33.6764 27.1022 34.0086V43.5719Z" fill="white"/>
</g>
</svg>
